<?xml version="1.0" encoding="UTF-8" standalone="no"?>
<svg width="227.189mm" height="170.744mm"
 viewBox="0 0 644 484"
 xmlns="http://www.w3.org/2000/svg" xmlns:xlink="http://www.w3.org/1999/xlink"  version="1.2" baseProfile="tiny">
<title>Qt SVG Document</title>
<desc>Generated with Qt</desc>
<defs>
</defs>
<g fill="none" stroke="black" stroke-width="1" fill-rule="evenodd" stroke-linecap="square" stroke-linejoin="bevel" >

<g fill="none" stroke="#000000" stroke-opacity="1" stroke-width="1" stroke-linecap="square" stroke-linejoin="bevel" transform="matrix(1,0,0,1,0,0)"
font-family="Cantarell" font-size="11" font-weight="400" font-style="normal" 
>
</g>

<g fill="none" stroke="#000000" stroke-opacity="1" stroke-width="1" stroke-linecap="square" stroke-linejoin="bevel" transform="matrix(1.00625,0,0,1.00625,0,0)"
font-family="Cantarell" font-size="11" font-weight="400" font-style="normal" 
>
</g>

<g fill="none" stroke="#000000" stroke-opacity="1" stroke-width="1" stroke-linecap="round" stroke-linejoin="round" transform="matrix(1.00625,0,0,1.00625,0,0)"
font-family="Cantarell" font-size="11" font-weight="400" font-style="normal" 
>
<polyline fill="none" vector-effect="none" points="38.5,452.5 44.5,452.5 " />
<polyline fill="none" vector-effect="none" points="618.5,452.5 613.5,452.5 " />
</g>

<g fill="none" stroke="#000000" stroke-opacity="1" stroke-width="1" stroke-linecap="square" stroke-linejoin="bevel" transform="matrix(1.00625,0,0,1.00625,0,0)"
font-family="Cantarell" font-size="11" font-weight="400" font-style="normal" 
>
</g>

<g fill="none" stroke="#000000" stroke-opacity="1" stroke-width="1" stroke-linecap="square" stroke-linejoin="bevel" transform="matrix(1.00625,0,0,1.00625,21.1313,458.85)"
font-family="Cantarell" font-size="11" font-weight="400" font-style="normal" 
>
</g>

<g fill="none" stroke="#000000" stroke-opacity="1" stroke-width="1" stroke-linecap="square" stroke-linejoin="bevel" transform="matrix(1.00625,0,0,1.00625,21.1313,458.85)"
font-family="Cantarell" font-size="11" font-weight="400" font-style="normal" 
>
</g>

<g fill="none" stroke="#000000" stroke-opacity="1" stroke-width="1" stroke-linecap="square" stroke-linejoin="bevel" transform="matrix(1.00625,0,0,1.00625,21.1313,458.85)"
font-family="Cantarell" font-size="11" font-weight="400" font-style="normal" 
>
</g>

<g fill="none" stroke="#000000" stroke-opacity="1" stroke-width="1" stroke-linecap="square" stroke-linejoin="bevel" transform="matrix(1.00625,0,0,1.00625,21.1313,458.85)"
font-family="Cantarell" font-size="11" font-weight="400" font-style="normal" 
>
</g>

<g fill="none" stroke="#000000" stroke-opacity="1" stroke-width="1" stroke-linecap="square" stroke-linejoin="bevel" transform="matrix(1.00625,0,0,1.00625,21.1313,458.85)"
font-family="Cantarell" font-size="11" font-weight="400" font-style="normal" 
>
</g>

<g fill="none" stroke="#000000" stroke-opacity="1" stroke-width="1" stroke-linecap="square" stroke-linejoin="bevel" transform="matrix(1.00625,0,0,1.00625,21.1313,458.85)"
font-family="Sans" font-size="9" font-weight="400" font-style="normal" 
>
<text fill="#000000" fill-opacity="1" stroke="none" xml:space="preserve" x="0" y="0" font-family="Sans" font-size="9" font-weight="400" font-style="normal" 
 > 0</text>
</g>

<g fill="none" stroke="#000000" stroke-opacity="1" stroke-width="1" stroke-linecap="square" stroke-linejoin="bevel" transform="matrix(1.00625,0,0,1.00625,21.1313,458.85)"
font-family="Cantarell" font-size="11" font-weight="400" font-style="normal" 
>
</g>

<g fill="none" stroke="#000000" stroke-opacity="1" stroke-width="1" stroke-linecap="square" stroke-linejoin="bevel" transform="matrix(1.00625,0,0,1.00625,0,0)"
font-family="Cantarell" font-size="11" font-weight="400" font-style="normal" 
>
</g>

<g fill="none" stroke="#000000" stroke-opacity="1" stroke-width="1" stroke-linecap="round" stroke-linejoin="round" transform="matrix(1.00625,0,0,1.00625,0,0)"
font-family="Cantarell" font-size="11" font-weight="400" font-style="normal" 
>
<polyline fill="none" vector-effect="none" points="38.5,403.5 44.5,403.5 " />
<polyline fill="none" vector-effect="none" points="618.5,403.5 613.5,403.5 " />
</g>

<g fill="none" stroke="#000000" stroke-opacity="1" stroke-width="1" stroke-linecap="square" stroke-linejoin="bevel" transform="matrix(1.00625,0,0,1.00625,0,0)"
font-family="Cantarell" font-size="11" font-weight="400" font-style="normal" 
>
</g>

<g fill="none" stroke="#000000" stroke-opacity="1" stroke-width="1" stroke-linecap="square" stroke-linejoin="bevel" transform="matrix(1.00625,0,0,1.00625,13.0813,409.544)"
font-family="Cantarell" font-size="11" font-weight="400" font-style="normal" 
>
</g>

<g fill="none" stroke="#000000" stroke-opacity="1" stroke-width="1" stroke-linecap="square" stroke-linejoin="bevel" transform="matrix(1.00625,0,0,1.00625,13.0813,409.544)"
font-family="Cantarell" font-size="11" font-weight="400" font-style="normal" 
>
</g>

<g fill="none" stroke="#000000" stroke-opacity="1" stroke-width="1" stroke-linecap="square" stroke-linejoin="bevel" transform="matrix(1.00625,0,0,1.00625,13.0813,409.544)"
font-family="Cantarell" font-size="11" font-weight="400" font-style="normal" 
>
</g>

<g fill="none" stroke="#000000" stroke-opacity="1" stroke-width="1" stroke-linecap="square" stroke-linejoin="bevel" transform="matrix(1.00625,0,0,1.00625,13.0813,409.544)"
font-family="Cantarell" font-size="11" font-weight="400" font-style="normal" 
>
</g>

<g fill="none" stroke="#000000" stroke-opacity="1" stroke-width="1" stroke-linecap="square" stroke-linejoin="bevel" transform="matrix(1.00625,0,0,1.00625,13.0813,409.544)"
font-family="Cantarell" font-size="11" font-weight="400" font-style="normal" 
>
</g>

<g fill="none" stroke="#000000" stroke-opacity="1" stroke-width="1" stroke-linecap="square" stroke-linejoin="bevel" transform="matrix(1.00625,0,0,1.00625,13.0813,409.544)"
font-family="Sans" font-size="9" font-weight="400" font-style="normal" 
>
<text fill="#000000" fill-opacity="1" stroke="none" xml:space="preserve" x="0" y="0" font-family="Sans" font-size="9" font-weight="400" font-style="normal" 
 > 10</text>
</g>

<g fill="none" stroke="#000000" stroke-opacity="1" stroke-width="1" stroke-linecap="square" stroke-linejoin="bevel" transform="matrix(1.00625,0,0,1.00625,13.0813,409.544)"
font-family="Cantarell" font-size="11" font-weight="400" font-style="normal" 
>
</g>

<g fill="none" stroke="#000000" stroke-opacity="1" stroke-width="1" stroke-linecap="square" stroke-linejoin="bevel" transform="matrix(1.00625,0,0,1.00625,0,0)"
font-family="Cantarell" font-size="11" font-weight="400" font-style="normal" 
>
</g>

<g fill="none" stroke="#000000" stroke-opacity="1" stroke-width="1" stroke-linecap="round" stroke-linejoin="round" transform="matrix(1.00625,0,0,1.00625,0,0)"
font-family="Cantarell" font-size="11" font-weight="400" font-style="normal" 
>
<polyline fill="none" vector-effect="none" points="38.5,354.5 44.5,354.5 " />
<polyline fill="none" vector-effect="none" points="618.5,354.5 613.5,354.5 " />
</g>

<g fill="none" stroke="#000000" stroke-opacity="1" stroke-width="1" stroke-linecap="square" stroke-linejoin="bevel" transform="matrix(1.00625,0,0,1.00625,0,0)"
font-family="Cantarell" font-size="11" font-weight="400" font-style="normal" 
>
</g>

<g fill="none" stroke="#000000" stroke-opacity="1" stroke-width="1" stroke-linecap="square" stroke-linejoin="bevel" transform="matrix(1.00625,0,0,1.00625,13.0813,361.244)"
font-family="Cantarell" font-size="11" font-weight="400" font-style="normal" 
>
</g>

<g fill="none" stroke="#000000" stroke-opacity="1" stroke-width="1" stroke-linecap="square" stroke-linejoin="bevel" transform="matrix(1.00625,0,0,1.00625,13.0813,361.244)"
font-family="Cantarell" font-size="11" font-weight="400" font-style="normal" 
>
</g>

<g fill="none" stroke="#000000" stroke-opacity="1" stroke-width="1" stroke-linecap="square" stroke-linejoin="bevel" transform="matrix(1.00625,0,0,1.00625,13.0813,361.244)"
font-family="Cantarell" font-size="11" font-weight="400" font-style="normal" 
>
</g>

<g fill="none" stroke="#000000" stroke-opacity="1" stroke-width="1" stroke-linecap="square" stroke-linejoin="bevel" transform="matrix(1.00625,0,0,1.00625,13.0813,361.244)"
font-family="Cantarell" font-size="11" font-weight="400" font-style="normal" 
>
</g>

<g fill="none" stroke="#000000" stroke-opacity="1" stroke-width="1" stroke-linecap="square" stroke-linejoin="bevel" transform="matrix(1.00625,0,0,1.00625,13.0813,361.244)"
font-family="Cantarell" font-size="11" font-weight="400" font-style="normal" 
>
</g>

<g fill="none" stroke="#000000" stroke-opacity="1" stroke-width="1" stroke-linecap="square" stroke-linejoin="bevel" transform="matrix(1.00625,0,0,1.00625,13.0813,361.244)"
font-family="Sans" font-size="9" font-weight="400" font-style="normal" 
>
<text fill="#000000" fill-opacity="1" stroke="none" xml:space="preserve" x="0" y="0" font-family="Sans" font-size="9" font-weight="400" font-style="normal" 
 > 20</text>
</g>

<g fill="none" stroke="#000000" stroke-opacity="1" stroke-width="1" stroke-linecap="square" stroke-linejoin="bevel" transform="matrix(1.00625,0,0,1.00625,13.0813,361.244)"
font-family="Cantarell" font-size="11" font-weight="400" font-style="normal" 
>
</g>

<g fill="none" stroke="#000000" stroke-opacity="1" stroke-width="1" stroke-linecap="square" stroke-linejoin="bevel" transform="matrix(1.00625,0,0,1.00625,0,0)"
font-family="Cantarell" font-size="11" font-weight="400" font-style="normal" 
>
</g>

<g fill="none" stroke="#000000" stroke-opacity="1" stroke-width="1" stroke-linecap="round" stroke-linejoin="round" transform="matrix(1.00625,0,0,1.00625,0,0)"
font-family="Cantarell" font-size="11" font-weight="400" font-style="normal" 
>
<polyline fill="none" vector-effect="none" points="38.5,306.5 44.5,306.5 " />
<polyline fill="none" vector-effect="none" points="618.5,306.5 613.5,306.5 " />
</g>

<g fill="none" stroke="#000000" stroke-opacity="1" stroke-width="1" stroke-linecap="square" stroke-linejoin="bevel" transform="matrix(1.00625,0,0,1.00625,0,0)"
font-family="Cantarell" font-size="11" font-weight="400" font-style="normal" 
>
</g>

<g fill="none" stroke="#000000" stroke-opacity="1" stroke-width="1" stroke-linecap="square" stroke-linejoin="bevel" transform="matrix(1.00625,0,0,1.00625,13.0813,311.938)"
font-family="Cantarell" font-size="11" font-weight="400" font-style="normal" 
>
</g>

<g fill="none" stroke="#000000" stroke-opacity="1" stroke-width="1" stroke-linecap="square" stroke-linejoin="bevel" transform="matrix(1.00625,0,0,1.00625,13.0813,311.938)"
font-family="Cantarell" font-size="11" font-weight="400" font-style="normal" 
>
</g>

<g fill="none" stroke="#000000" stroke-opacity="1" stroke-width="1" stroke-linecap="square" stroke-linejoin="bevel" transform="matrix(1.00625,0,0,1.00625,13.0813,311.938)"
font-family="Cantarell" font-size="11" font-weight="400" font-style="normal" 
>
</g>

<g fill="none" stroke="#000000" stroke-opacity="1" stroke-width="1" stroke-linecap="square" stroke-linejoin="bevel" transform="matrix(1.00625,0,0,1.00625,13.0813,311.938)"
font-family="Cantarell" font-size="11" font-weight="400" font-style="normal" 
>
</g>

<g fill="none" stroke="#000000" stroke-opacity="1" stroke-width="1" stroke-linecap="square" stroke-linejoin="bevel" transform="matrix(1.00625,0,0,1.00625,13.0813,311.938)"
font-family="Cantarell" font-size="11" font-weight="400" font-style="normal" 
>
</g>

<g fill="none" stroke="#000000" stroke-opacity="1" stroke-width="1" stroke-linecap="square" stroke-linejoin="bevel" transform="matrix(1.00625,0,0,1.00625,13.0813,311.938)"
font-family="Sans" font-size="9" font-weight="400" font-style="normal" 
>
<text fill="#000000" fill-opacity="1" stroke="none" xml:space="preserve" x="0" y="0" font-family="Sans" font-size="9" font-weight="400" font-style="normal" 
 > 30</text>
</g>

<g fill="none" stroke="#000000" stroke-opacity="1" stroke-width="1" stroke-linecap="square" stroke-linejoin="bevel" transform="matrix(1.00625,0,0,1.00625,13.0813,311.938)"
font-family="Cantarell" font-size="11" font-weight="400" font-style="normal" 
>
</g>

<g fill="none" stroke="#000000" stroke-opacity="1" stroke-width="1" stroke-linecap="square" stroke-linejoin="bevel" transform="matrix(1.00625,0,0,1.00625,0,0)"
font-family="Cantarell" font-size="11" font-weight="400" font-style="normal" 
>
</g>

<g fill="none" stroke="#000000" stroke-opacity="1" stroke-width="1" stroke-linecap="round" stroke-linejoin="round" transform="matrix(1.00625,0,0,1.00625,0,0)"
font-family="Cantarell" font-size="11" font-weight="400" font-style="normal" 
>
<polyline fill="none" vector-effect="none" points="38.5,257.5 44.5,257.5 " />
<polyline fill="none" vector-effect="none" points="618.5,257.5 613.5,257.5 " />
</g>

<g fill="none" stroke="#000000" stroke-opacity="1" stroke-width="1" stroke-linecap="square" stroke-linejoin="bevel" transform="matrix(1.00625,0,0,1.00625,0,0)"
font-family="Cantarell" font-size="11" font-weight="400" font-style="normal" 
>
</g>

<g fill="none" stroke="#000000" stroke-opacity="1" stroke-width="1" stroke-linecap="square" stroke-linejoin="bevel" transform="matrix(1.00625,0,0,1.00625,13.0813,262.631)"
font-family="Cantarell" font-size="11" font-weight="400" font-style="normal" 
>
</g>

<g fill="none" stroke="#000000" stroke-opacity="1" stroke-width="1" stroke-linecap="square" stroke-linejoin="bevel" transform="matrix(1.00625,0,0,1.00625,13.0813,262.631)"
font-family="Cantarell" font-size="11" font-weight="400" font-style="normal" 
>
</g>

<g fill="none" stroke="#000000" stroke-opacity="1" stroke-width="1" stroke-linecap="square" stroke-linejoin="bevel" transform="matrix(1.00625,0,0,1.00625,13.0813,262.631)"
font-family="Cantarell" font-size="11" font-weight="400" font-style="normal" 
>
</g>

<g fill="none" stroke="#000000" stroke-opacity="1" stroke-width="1" stroke-linecap="square" stroke-linejoin="bevel" transform="matrix(1.00625,0,0,1.00625,13.0813,262.631)"
font-family="Cantarell" font-size="11" font-weight="400" font-style="normal" 
>
</g>

<g fill="none" stroke="#000000" stroke-opacity="1" stroke-width="1" stroke-linecap="square" stroke-linejoin="bevel" transform="matrix(1.00625,0,0,1.00625,13.0813,262.631)"
font-family="Cantarell" font-size="11" font-weight="400" font-style="normal" 
>
</g>

<g fill="none" stroke="#000000" stroke-opacity="1" stroke-width="1" stroke-linecap="square" stroke-linejoin="bevel" transform="matrix(1.00625,0,0,1.00625,13.0813,262.631)"
font-family="Sans" font-size="9" font-weight="400" font-style="normal" 
>
<text fill="#000000" fill-opacity="1" stroke="none" xml:space="preserve" x="0" y="0" font-family="Sans" font-size="9" font-weight="400" font-style="normal" 
 > 40</text>
</g>

<g fill="none" stroke="#000000" stroke-opacity="1" stroke-width="1" stroke-linecap="square" stroke-linejoin="bevel" transform="matrix(1.00625,0,0,1.00625,13.0813,262.631)"
font-family="Cantarell" font-size="11" font-weight="400" font-style="normal" 
>
</g>

<g fill="none" stroke="#000000" stroke-opacity="1" stroke-width="1" stroke-linecap="square" stroke-linejoin="bevel" transform="matrix(1.00625,0,0,1.00625,0,0)"
font-family="Cantarell" font-size="11" font-weight="400" font-style="normal" 
>
</g>

<g fill="none" stroke="#000000" stroke-opacity="1" stroke-width="1" stroke-linecap="round" stroke-linejoin="round" transform="matrix(1.00625,0,0,1.00625,0,0)"
font-family="Cantarell" font-size="11" font-weight="400" font-style="normal" 
>
<polyline fill="none" vector-effect="none" points="38.5,208.5 44.5,208.5 " />
<polyline fill="none" vector-effect="none" points="618.5,208.5 613.5,208.5 " />
</g>

<g fill="none" stroke="#000000" stroke-opacity="1" stroke-width="1" stroke-linecap="square" stroke-linejoin="bevel" transform="matrix(1.00625,0,0,1.00625,0,0)"
font-family="Cantarell" font-size="11" font-weight="400" font-style="normal" 
>
</g>

<g fill="none" stroke="#000000" stroke-opacity="1" stroke-width="1" stroke-linecap="square" stroke-linejoin="bevel" transform="matrix(1.00625,0,0,1.00625,13.0813,214.331)"
font-family="Cantarell" font-size="11" font-weight="400" font-style="normal" 
>
</g>

<g fill="none" stroke="#000000" stroke-opacity="1" stroke-width="1" stroke-linecap="square" stroke-linejoin="bevel" transform="matrix(1.00625,0,0,1.00625,13.0813,214.331)"
font-family="Cantarell" font-size="11" font-weight="400" font-style="normal" 
>
</g>

<g fill="none" stroke="#000000" stroke-opacity="1" stroke-width="1" stroke-linecap="square" stroke-linejoin="bevel" transform="matrix(1.00625,0,0,1.00625,13.0813,214.331)"
font-family="Cantarell" font-size="11" font-weight="400" font-style="normal" 
>
</g>

<g fill="none" stroke="#000000" stroke-opacity="1" stroke-width="1" stroke-linecap="square" stroke-linejoin="bevel" transform="matrix(1.00625,0,0,1.00625,13.0813,214.331)"
font-family="Cantarell" font-size="11" font-weight="400" font-style="normal" 
>
</g>

<g fill="none" stroke="#000000" stroke-opacity="1" stroke-width="1" stroke-linecap="square" stroke-linejoin="bevel" transform="matrix(1.00625,0,0,1.00625,13.0813,214.331)"
font-family="Cantarell" font-size="11" font-weight="400" font-style="normal" 
>
</g>

<g fill="none" stroke="#000000" stroke-opacity="1" stroke-width="1" stroke-linecap="square" stroke-linejoin="bevel" transform="matrix(1.00625,0,0,1.00625,13.0813,214.331)"
font-family="Sans" font-size="9" font-weight="400" font-style="normal" 
>
<text fill="#000000" fill-opacity="1" stroke="none" xml:space="preserve" x="0" y="0" font-family="Sans" font-size="9" font-weight="400" font-style="normal" 
 > 50</text>
</g>

<g fill="none" stroke="#000000" stroke-opacity="1" stroke-width="1" stroke-linecap="square" stroke-linejoin="bevel" transform="matrix(1.00625,0,0,1.00625,13.0813,214.331)"
font-family="Cantarell" font-size="11" font-weight="400" font-style="normal" 
>
</g>

<g fill="none" stroke="#000000" stroke-opacity="1" stroke-width="1" stroke-linecap="square" stroke-linejoin="bevel" transform="matrix(1.00625,0,0,1.00625,0,0)"
font-family="Cantarell" font-size="11" font-weight="400" font-style="normal" 
>
</g>

<g fill="none" stroke="#000000" stroke-opacity="1" stroke-width="1" stroke-linecap="round" stroke-linejoin="round" transform="matrix(1.00625,0,0,1.00625,0,0)"
font-family="Cantarell" font-size="11" font-weight="400" font-style="normal" 
>
<polyline fill="none" vector-effect="none" points="38.5,160.5 44.5,160.5 " />
<polyline fill="none" vector-effect="none" points="618.5,160.5 613.5,160.5 " />
</g>

<g fill="none" stroke="#000000" stroke-opacity="1" stroke-width="1" stroke-linecap="square" stroke-linejoin="bevel" transform="matrix(1.00625,0,0,1.00625,0,0)"
font-family="Cantarell" font-size="11" font-weight="400" font-style="normal" 
>
</g>

<g fill="none" stroke="#000000" stroke-opacity="1" stroke-width="1" stroke-linecap="square" stroke-linejoin="bevel" transform="matrix(1.00625,0,0,1.00625,13.0813,165.025)"
font-family="Cantarell" font-size="11" font-weight="400" font-style="normal" 
>
</g>

<g fill="none" stroke="#000000" stroke-opacity="1" stroke-width="1" stroke-linecap="square" stroke-linejoin="bevel" transform="matrix(1.00625,0,0,1.00625,13.0813,165.025)"
font-family="Cantarell" font-size="11" font-weight="400" font-style="normal" 
>
</g>

<g fill="none" stroke="#000000" stroke-opacity="1" stroke-width="1" stroke-linecap="square" stroke-linejoin="bevel" transform="matrix(1.00625,0,0,1.00625,13.0813,165.025)"
font-family="Cantarell" font-size="11" font-weight="400" font-style="normal" 
>
</g>

<g fill="none" stroke="#000000" stroke-opacity="1" stroke-width="1" stroke-linecap="square" stroke-linejoin="bevel" transform="matrix(1.00625,0,0,1.00625,13.0813,165.025)"
font-family="Cantarell" font-size="11" font-weight="400" font-style="normal" 
>
</g>

<g fill="none" stroke="#000000" stroke-opacity="1" stroke-width="1" stroke-linecap="square" stroke-linejoin="bevel" transform="matrix(1.00625,0,0,1.00625,13.0813,165.025)"
font-family="Cantarell" font-size="11" font-weight="400" font-style="normal" 
>
</g>

<g fill="none" stroke="#000000" stroke-opacity="1" stroke-width="1" stroke-linecap="square" stroke-linejoin="bevel" transform="matrix(1.00625,0,0,1.00625,13.0813,165.025)"
font-family="Sans" font-size="9" font-weight="400" font-style="normal" 
>
<text fill="#000000" fill-opacity="1" stroke="none" xml:space="preserve" x="0" y="0" font-family="Sans" font-size="9" font-weight="400" font-style="normal" 
 > 60</text>
</g>

<g fill="none" stroke="#000000" stroke-opacity="1" stroke-width="1" stroke-linecap="square" stroke-linejoin="bevel" transform="matrix(1.00625,0,0,1.00625,13.0813,165.025)"
font-family="Cantarell" font-size="11" font-weight="400" font-style="normal" 
>
</g>

<g fill="none" stroke="#000000" stroke-opacity="1" stroke-width="1" stroke-linecap="square" stroke-linejoin="bevel" transform="matrix(1.00625,0,0,1.00625,0,0)"
font-family="Cantarell" font-size="11" font-weight="400" font-style="normal" 
>
</g>

<g fill="none" stroke="#000000" stroke-opacity="1" stroke-width="1" stroke-linecap="round" stroke-linejoin="round" transform="matrix(1.00625,0,0,1.00625,0,0)"
font-family="Cantarell" font-size="11" font-weight="400" font-style="normal" 
>
<polyline fill="none" vector-effect="none" points="38.5,111.5 44.5,111.5 " />
<polyline fill="none" vector-effect="none" points="618.5,111.5 613.5,111.5 " />
</g>

<g fill="none" stroke="#000000" stroke-opacity="1" stroke-width="1" stroke-linecap="square" stroke-linejoin="bevel" transform="matrix(1.00625,0,0,1.00625,0,0)"
font-family="Cantarell" font-size="11" font-weight="400" font-style="normal" 
>
</g>

<g fill="none" stroke="#000000" stroke-opacity="1" stroke-width="1" stroke-linecap="square" stroke-linejoin="bevel" transform="matrix(1.00625,0,0,1.00625,13.0813,115.719)"
font-family="Cantarell" font-size="11" font-weight="400" font-style="normal" 
>
</g>

<g fill="none" stroke="#000000" stroke-opacity="1" stroke-width="1" stroke-linecap="square" stroke-linejoin="bevel" transform="matrix(1.00625,0,0,1.00625,13.0813,115.719)"
font-family="Cantarell" font-size="11" font-weight="400" font-style="normal" 
>
</g>

<g fill="none" stroke="#000000" stroke-opacity="1" stroke-width="1" stroke-linecap="square" stroke-linejoin="bevel" transform="matrix(1.00625,0,0,1.00625,13.0813,115.719)"
font-family="Cantarell" font-size="11" font-weight="400" font-style="normal" 
>
</g>

<g fill="none" stroke="#000000" stroke-opacity="1" stroke-width="1" stroke-linecap="square" stroke-linejoin="bevel" transform="matrix(1.00625,0,0,1.00625,13.0813,115.719)"
font-family="Cantarell" font-size="11" font-weight="400" font-style="normal" 
>
</g>

<g fill="none" stroke="#000000" stroke-opacity="1" stroke-width="1" stroke-linecap="square" stroke-linejoin="bevel" transform="matrix(1.00625,0,0,1.00625,13.0813,115.719)"
font-family="Cantarell" font-size="11" font-weight="400" font-style="normal" 
>
</g>

<g fill="none" stroke="#000000" stroke-opacity="1" stroke-width="1" stroke-linecap="square" stroke-linejoin="bevel" transform="matrix(1.00625,0,0,1.00625,13.0813,115.719)"
font-family="Sans" font-size="9" font-weight="400" font-style="normal" 
>
<text fill="#000000" fill-opacity="1" stroke="none" xml:space="preserve" x="0" y="0" font-family="Sans" font-size="9" font-weight="400" font-style="normal" 
 > 70</text>
</g>

<g fill="none" stroke="#000000" stroke-opacity="1" stroke-width="1" stroke-linecap="square" stroke-linejoin="bevel" transform="matrix(1.00625,0,0,1.00625,13.0813,115.719)"
font-family="Cantarell" font-size="11" font-weight="400" font-style="normal" 
>
</g>

<g fill="none" stroke="#000000" stroke-opacity="1" stroke-width="1" stroke-linecap="square" stroke-linejoin="bevel" transform="matrix(1.00625,0,0,1.00625,0,0)"
font-family="Cantarell" font-size="11" font-weight="400" font-style="normal" 
>
</g>

<g fill="none" stroke="#000000" stroke-opacity="1" stroke-width="1" stroke-linecap="round" stroke-linejoin="round" transform="matrix(1.00625,0,0,1.00625,0,0)"
font-family="Cantarell" font-size="11" font-weight="400" font-style="normal" 
>
<polyline fill="none" vector-effect="none" points="38.5,62.5 44.5,62.5 " />
<polyline fill="none" vector-effect="none" points="618.5,62.5 613.5,62.5 " />
</g>

<g fill="none" stroke="#000000" stroke-opacity="1" stroke-width="1" stroke-linecap="square" stroke-linejoin="bevel" transform="matrix(1.00625,0,0,1.00625,0,0)"
font-family="Cantarell" font-size="11" font-weight="400" font-style="normal" 
>
</g>

<g fill="none" stroke="#000000" stroke-opacity="1" stroke-width="1" stroke-linecap="square" stroke-linejoin="bevel" transform="matrix(1.00625,0,0,1.00625,13.0813,67.4188)"
font-family="Cantarell" font-size="11" font-weight="400" font-style="normal" 
>
</g>

<g fill="none" stroke="#000000" stroke-opacity="1" stroke-width="1" stroke-linecap="square" stroke-linejoin="bevel" transform="matrix(1.00625,0,0,1.00625,13.0813,67.4188)"
font-family="Cantarell" font-size="11" font-weight="400" font-style="normal" 
>
</g>

<g fill="none" stroke="#000000" stroke-opacity="1" stroke-width="1" stroke-linecap="square" stroke-linejoin="bevel" transform="matrix(1.00625,0,0,1.00625,13.0813,67.4188)"
font-family="Cantarell" font-size="11" font-weight="400" font-style="normal" 
>
</g>

<g fill="none" stroke="#000000" stroke-opacity="1" stroke-width="1" stroke-linecap="square" stroke-linejoin="bevel" transform="matrix(1.00625,0,0,1.00625,13.0813,67.4188)"
font-family="Cantarell" font-size="11" font-weight="400" font-style="normal" 
>
</g>

<g fill="none" stroke="#000000" stroke-opacity="1" stroke-width="1" stroke-linecap="square" stroke-linejoin="bevel" transform="matrix(1.00625,0,0,1.00625,13.0813,67.4188)"
font-family="Cantarell" font-size="11" font-weight="400" font-style="normal" 
>
</g>

<g fill="none" stroke="#000000" stroke-opacity="1" stroke-width="1" stroke-linecap="square" stroke-linejoin="bevel" transform="matrix(1.00625,0,0,1.00625,13.0813,67.4188)"
font-family="Sans" font-size="9" font-weight="400" font-style="normal" 
>
<text fill="#000000" fill-opacity="1" stroke="none" xml:space="preserve" x="0" y="0" font-family="Sans" font-size="9" font-weight="400" font-style="normal" 
 > 80</text>
</g>

<g fill="none" stroke="#000000" stroke-opacity="1" stroke-width="1" stroke-linecap="square" stroke-linejoin="bevel" transform="matrix(1.00625,0,0,1.00625,13.0813,67.4188)"
font-family="Cantarell" font-size="11" font-weight="400" font-style="normal" 
>
</g>

<g fill="none" stroke="#000000" stroke-opacity="1" stroke-width="1" stroke-linecap="square" stroke-linejoin="bevel" transform="matrix(1.00625,0,0,1.00625,0,0)"
font-family="Cantarell" font-size="11" font-weight="400" font-style="normal" 
>
</g>

<g fill="none" stroke="#000000" stroke-opacity="1" stroke-width="1" stroke-linecap="round" stroke-linejoin="round" transform="matrix(1.00625,0,0,1.00625,0,0)"
font-family="Cantarell" font-size="11" font-weight="400" font-style="normal" 
>
<polyline fill="none" vector-effect="none" points="38.5,14.5 44.5,14.5 " />
<polyline fill="none" vector-effect="none" points="618.5,14.5 613.5,14.5 " />
</g>

<g fill="none" stroke="#000000" stroke-opacity="1" stroke-width="1" stroke-linecap="square" stroke-linejoin="bevel" transform="matrix(1.00625,0,0,1.00625,0,0)"
font-family="Cantarell" font-size="11" font-weight="400" font-style="normal" 
>
</g>

<g fill="none" stroke="#000000" stroke-opacity="1" stroke-width="1" stroke-linecap="square" stroke-linejoin="bevel" transform="matrix(1.00625,0,0,1.00625,13.0813,18.1125)"
font-family="Cantarell" font-size="11" font-weight="400" font-style="normal" 
>
</g>

<g fill="none" stroke="#000000" stroke-opacity="1" stroke-width="1" stroke-linecap="square" stroke-linejoin="bevel" transform="matrix(1.00625,0,0,1.00625,13.0813,18.1125)"
font-family="Cantarell" font-size="11" font-weight="400" font-style="normal" 
>
</g>

<g fill="none" stroke="#000000" stroke-opacity="1" stroke-width="1" stroke-linecap="square" stroke-linejoin="bevel" transform="matrix(1.00625,0,0,1.00625,13.0813,18.1125)"
font-family="Cantarell" font-size="11" font-weight="400" font-style="normal" 
>
</g>

<g fill="none" stroke="#000000" stroke-opacity="1" stroke-width="1" stroke-linecap="square" stroke-linejoin="bevel" transform="matrix(1.00625,0,0,1.00625,13.0813,18.1125)"
font-family="Cantarell" font-size="11" font-weight="400" font-style="normal" 
>
</g>

<g fill="none" stroke="#000000" stroke-opacity="1" stroke-width="1" stroke-linecap="square" stroke-linejoin="bevel" transform="matrix(1.00625,0,0,1.00625,13.0813,18.1125)"
font-family="Cantarell" font-size="11" font-weight="400" font-style="normal" 
>
</g>

<g fill="none" stroke="#000000" stroke-opacity="1" stroke-width="1" stroke-linecap="square" stroke-linejoin="bevel" transform="matrix(1.00625,0,0,1.00625,13.0813,18.1125)"
font-family="Sans" font-size="9" font-weight="400" font-style="normal" 
>
<text fill="#000000" fill-opacity="1" stroke="none" xml:space="preserve" x="0" y="0" font-family="Sans" font-size="9" font-weight="400" font-style="normal" 
 > 90</text>
</g>

<g fill="none" stroke="#000000" stroke-opacity="1" stroke-width="1" stroke-linecap="square" stroke-linejoin="bevel" transform="matrix(1.00625,0,0,1.00625,13.0813,18.1125)"
font-family="Cantarell" font-size="11" font-weight="400" font-style="normal" 
>
</g>

<g fill="none" stroke="#000000" stroke-opacity="1" stroke-width="1" stroke-linecap="square" stroke-linejoin="bevel" transform="matrix(1.00625,0,0,1.00625,0,0)"
font-family="Cantarell" font-size="11" font-weight="400" font-style="normal" 
>
</g>

<g fill="none" stroke="#000000" stroke-opacity="1" stroke-width="1" stroke-linecap="round" stroke-linejoin="round" transform="matrix(1.00625,0,0,1.00625,0,0)"
font-family="Cantarell" font-size="11" font-weight="400" font-style="normal" 
>
<polyline fill="none" vector-effect="none" points="38.5,452.5 38.5,446.5 " />
<polyline fill="none" vector-effect="none" points="38.5,14.5 38.5,19.5 " />
</g>

<g fill="none" stroke="#000000" stroke-opacity="1" stroke-width="1" stroke-linecap="square" stroke-linejoin="bevel" transform="matrix(1.00625,0,0,1.00625,0,0)"
font-family="Cantarell" font-size="11" font-weight="400" font-style="normal" 
>
</g>

<g fill="none" stroke="#000000" stroke-opacity="1" stroke-width="1" stroke-linecap="square" stroke-linejoin="bevel" transform="matrix(1.00625,0,0,1.00625,33.7094,472.938)"
font-family="Cantarell" font-size="11" font-weight="400" font-style="normal" 
>
</g>

<g fill="none" stroke="#000000" stroke-opacity="1" stroke-width="1" stroke-linecap="square" stroke-linejoin="bevel" transform="matrix(1.00625,0,0,1.00625,33.7094,472.938)"
font-family="Cantarell" font-size="11" font-weight="400" font-style="normal" 
>
</g>

<g fill="none" stroke="#000000" stroke-opacity="1" stroke-width="1" stroke-linecap="square" stroke-linejoin="bevel" transform="matrix(1.00625,0,0,1.00625,33.7094,472.938)"
font-family="Cantarell" font-size="11" font-weight="400" font-style="normal" 
>
</g>

<g fill="none" stroke="#000000" stroke-opacity="1" stroke-width="1" stroke-linecap="square" stroke-linejoin="bevel" transform="matrix(1.00625,0,0,1.00625,33.7094,472.938)"
font-family="Cantarell" font-size="11" font-weight="400" font-style="normal" 
>
</g>

<g fill="none" stroke="#000000" stroke-opacity="1" stroke-width="1" stroke-linecap="square" stroke-linejoin="bevel" transform="matrix(1.00625,0,0,1.00625,33.7094,472.938)"
font-family="Cantarell" font-size="11" font-weight="400" font-style="normal" 
>
</g>

<g fill="none" stroke="#000000" stroke-opacity="1" stroke-width="1" stroke-linecap="square" stroke-linejoin="bevel" transform="matrix(1.00625,0,0,1.00625,33.7094,472.938)"
font-family="Sans" font-size="9" font-weight="400" font-style="normal" 
>
<text fill="#000000" fill-opacity="1" stroke="none" xml:space="preserve" x="0" y="0" font-family="Sans" font-size="9" font-weight="400" font-style="normal" 
 > 0</text>
</g>

<g fill="none" stroke="#000000" stroke-opacity="1" stroke-width="1" stroke-linecap="square" stroke-linejoin="bevel" transform="matrix(1.00625,0,0,1.00625,33.7094,472.938)"
font-family="Cantarell" font-size="11" font-weight="400" font-style="normal" 
>
</g>

<g fill="none" stroke="#000000" stroke-opacity="1" stroke-width="1" stroke-linecap="square" stroke-linejoin="bevel" transform="matrix(1.00625,0,0,1.00625,0,0)"
font-family="Cantarell" font-size="11" font-weight="400" font-style="normal" 
>
</g>

<g fill="none" stroke="#000000" stroke-opacity="1" stroke-width="1" stroke-linecap="round" stroke-linejoin="round" transform="matrix(1.00625,0,0,1.00625,0,0)"
font-family="Cantarell" font-size="11" font-weight="400" font-style="normal" 
>
<polyline fill="none" vector-effect="none" points="121.5,452.5 121.5,446.5 " />
<polyline fill="none" vector-effect="none" points="121.5,14.5 121.5,19.5 " />
</g>

<g fill="none" stroke="#000000" stroke-opacity="1" stroke-width="1" stroke-linecap="square" stroke-linejoin="bevel" transform="matrix(1.00625,0,0,1.00625,0,0)"
font-family="Cantarell" font-size="11" font-weight="400" font-style="normal" 
>
</g>

<g fill="none" stroke="#000000" stroke-opacity="1" stroke-width="1" stroke-linecap="square" stroke-linejoin="bevel" transform="matrix(1.00625,0,0,1.00625,108.172,472.938)"
font-family="Cantarell" font-size="11" font-weight="400" font-style="normal" 
>
</g>

<g fill="none" stroke="#000000" stroke-opacity="1" stroke-width="1" stroke-linecap="square" stroke-linejoin="bevel" transform="matrix(1.00625,0,0,1.00625,108.172,472.938)"
font-family="Cantarell" font-size="11" font-weight="400" font-style="normal" 
>
</g>

<g fill="none" stroke="#000000" stroke-opacity="1" stroke-width="1" stroke-linecap="square" stroke-linejoin="bevel" transform="matrix(1.00625,0,0,1.00625,108.172,472.938)"
font-family="Cantarell" font-size="11" font-weight="400" font-style="normal" 
>
</g>

<g fill="none" stroke="#000000" stroke-opacity="1" stroke-width="1" stroke-linecap="square" stroke-linejoin="bevel" transform="matrix(1.00625,0,0,1.00625,108.172,472.938)"
font-family="Cantarell" font-size="11" font-weight="400" font-style="normal" 
>
</g>

<g fill="none" stroke="#000000" stroke-opacity="1" stroke-width="1" stroke-linecap="square" stroke-linejoin="bevel" transform="matrix(1.00625,0,0,1.00625,108.172,472.938)"
font-family="Cantarell" font-size="11" font-weight="400" font-style="normal" 
>
</g>

<g fill="none" stroke="#000000" stroke-opacity="1" stroke-width="1" stroke-linecap="square" stroke-linejoin="bevel" transform="matrix(1.00625,0,0,1.00625,108.172,472.938)"
font-family="Sans" font-size="9" font-weight="400" font-style="normal" 
>
<text fill="#000000" fill-opacity="1" stroke="none" xml:space="preserve" x="0" y="0" font-family="Sans" font-size="9" font-weight="400" font-style="normal" 
 > 500</text>
</g>

<g fill="none" stroke="#000000" stroke-opacity="1" stroke-width="1" stroke-linecap="square" stroke-linejoin="bevel" transform="matrix(1.00625,0,0,1.00625,108.172,472.938)"
font-family="Cantarell" font-size="11" font-weight="400" font-style="normal" 
>
</g>

<g fill="none" stroke="#000000" stroke-opacity="1" stroke-width="1" stroke-linecap="square" stroke-linejoin="bevel" transform="matrix(1.00625,0,0,1.00625,0,0)"
font-family="Cantarell" font-size="11" font-weight="400" font-style="normal" 
>
</g>

<g fill="none" stroke="#000000" stroke-opacity="1" stroke-width="1" stroke-linecap="round" stroke-linejoin="round" transform="matrix(1.00625,0,0,1.00625,0,0)"
font-family="Cantarell" font-size="11" font-weight="400" font-style="normal" 
>
<polyline fill="none" vector-effect="none" points="204.5,452.5 204.5,446.5 " />
<polyline fill="none" vector-effect="none" points="204.5,14.5 204.5,19.5 " />
</g>

<g fill="none" stroke="#000000" stroke-opacity="1" stroke-width="1" stroke-linecap="square" stroke-linejoin="bevel" transform="matrix(1.00625,0,0,1.00625,0,0)"
font-family="Cantarell" font-size="11" font-weight="400" font-style="normal" 
>
</g>

<g fill="none" stroke="#000000" stroke-opacity="1" stroke-width="1" stroke-linecap="square" stroke-linejoin="bevel" transform="matrix(1.00625,0,0,1.00625,187.666,472.938)"
font-family="Cantarell" font-size="11" font-weight="400" font-style="normal" 
>
</g>

<g fill="none" stroke="#000000" stroke-opacity="1" stroke-width="1" stroke-linecap="square" stroke-linejoin="bevel" transform="matrix(1.00625,0,0,1.00625,187.666,472.938)"
font-family="Cantarell" font-size="11" font-weight="400" font-style="normal" 
>
</g>

<g fill="none" stroke="#000000" stroke-opacity="1" stroke-width="1" stroke-linecap="square" stroke-linejoin="bevel" transform="matrix(1.00625,0,0,1.00625,187.666,472.938)"
font-family="Cantarell" font-size="11" font-weight="400" font-style="normal" 
>
</g>

<g fill="none" stroke="#000000" stroke-opacity="1" stroke-width="1" stroke-linecap="square" stroke-linejoin="bevel" transform="matrix(1.00625,0,0,1.00625,187.666,472.938)"
font-family="Cantarell" font-size="11" font-weight="400" font-style="normal" 
>
</g>

<g fill="none" stroke="#000000" stroke-opacity="1" stroke-width="1" stroke-linecap="square" stroke-linejoin="bevel" transform="matrix(1.00625,0,0,1.00625,187.666,472.938)"
font-family="Cantarell" font-size="11" font-weight="400" font-style="normal" 
>
</g>

<g fill="none" stroke="#000000" stroke-opacity="1" stroke-width="1" stroke-linecap="square" stroke-linejoin="bevel" transform="matrix(1.00625,0,0,1.00625,187.666,472.938)"
font-family="Sans" font-size="9" font-weight="400" font-style="normal" 
>
<text fill="#000000" fill-opacity="1" stroke="none" xml:space="preserve" x="0" y="0" font-family="Sans" font-size="9" font-weight="400" font-style="normal" 
 > 1000</text>
</g>

<g fill="none" stroke="#000000" stroke-opacity="1" stroke-width="1" stroke-linecap="square" stroke-linejoin="bevel" transform="matrix(1.00625,0,0,1.00625,187.666,472.938)"
font-family="Cantarell" font-size="11" font-weight="400" font-style="normal" 
>
</g>

<g fill="none" stroke="#000000" stroke-opacity="1" stroke-width="1" stroke-linecap="square" stroke-linejoin="bevel" transform="matrix(1.00625,0,0,1.00625,0,0)"
font-family="Cantarell" font-size="11" font-weight="400" font-style="normal" 
>
</g>

<g fill="none" stroke="#000000" stroke-opacity="1" stroke-width="1" stroke-linecap="round" stroke-linejoin="round" transform="matrix(1.00625,0,0,1.00625,0,0)"
font-family="Cantarell" font-size="11" font-weight="400" font-style="normal" 
>
<polyline fill="none" vector-effect="none" points="287.5,452.5 287.5,446.5 " />
<polyline fill="none" vector-effect="none" points="287.5,14.5 287.5,19.5 " />
</g>

<g fill="none" stroke="#000000" stroke-opacity="1" stroke-width="1" stroke-linecap="square" stroke-linejoin="bevel" transform="matrix(1.00625,0,0,1.00625,0,0)"
font-family="Cantarell" font-size="11" font-weight="400" font-style="normal" 
>
</g>

<g fill="none" stroke="#000000" stroke-opacity="1" stroke-width="1" stroke-linecap="square" stroke-linejoin="bevel" transform="matrix(1.00625,0,0,1.00625,271.184,472.938)"
font-family="Cantarell" font-size="11" font-weight="400" font-style="normal" 
>
</g>

<g fill="none" stroke="#000000" stroke-opacity="1" stroke-width="1" stroke-linecap="square" stroke-linejoin="bevel" transform="matrix(1.00625,0,0,1.00625,271.184,472.938)"
font-family="Cantarell" font-size="11" font-weight="400" font-style="normal" 
>
</g>

<g fill="none" stroke="#000000" stroke-opacity="1" stroke-width="1" stroke-linecap="square" stroke-linejoin="bevel" transform="matrix(1.00625,0,0,1.00625,271.184,472.938)"
font-family="Cantarell" font-size="11" font-weight="400" font-style="normal" 
>
</g>

<g fill="none" stroke="#000000" stroke-opacity="1" stroke-width="1" stroke-linecap="square" stroke-linejoin="bevel" transform="matrix(1.00625,0,0,1.00625,271.184,472.938)"
font-family="Cantarell" font-size="11" font-weight="400" font-style="normal" 
>
</g>

<g fill="none" stroke="#000000" stroke-opacity="1" stroke-width="1" stroke-linecap="square" stroke-linejoin="bevel" transform="matrix(1.00625,0,0,1.00625,271.184,472.938)"
font-family="Cantarell" font-size="11" font-weight="400" font-style="normal" 
>
</g>

<g fill="none" stroke="#000000" stroke-opacity="1" stroke-width="1" stroke-linecap="square" stroke-linejoin="bevel" transform="matrix(1.00625,0,0,1.00625,271.184,472.938)"
font-family="Sans" font-size="9" font-weight="400" font-style="normal" 
>
<text fill="#000000" fill-opacity="1" stroke="none" xml:space="preserve" x="0" y="0" font-family="Sans" font-size="9" font-weight="400" font-style="normal" 
 > 1500</text>
</g>

<g fill="none" stroke="#000000" stroke-opacity="1" stroke-width="1" stroke-linecap="square" stroke-linejoin="bevel" transform="matrix(1.00625,0,0,1.00625,271.184,472.938)"
font-family="Cantarell" font-size="11" font-weight="400" font-style="normal" 
>
</g>

<g fill="none" stroke="#000000" stroke-opacity="1" stroke-width="1" stroke-linecap="square" stroke-linejoin="bevel" transform="matrix(1.00625,0,0,1.00625,0,0)"
font-family="Cantarell" font-size="11" font-weight="400" font-style="normal" 
>
</g>

<g fill="none" stroke="#000000" stroke-opacity="1" stroke-width="1" stroke-linecap="round" stroke-linejoin="round" transform="matrix(1.00625,0,0,1.00625,0,0)"
font-family="Cantarell" font-size="11" font-weight="400" font-style="normal" 
>
<polyline fill="none" vector-effect="none" points="370.5,452.5 370.5,446.5 " />
<polyline fill="none" vector-effect="none" points="370.5,14.5 370.5,19.5 " />
</g>

<g fill="none" stroke="#000000" stroke-opacity="1" stroke-width="1" stroke-linecap="square" stroke-linejoin="bevel" transform="matrix(1.00625,0,0,1.00625,0,0)"
font-family="Cantarell" font-size="11" font-weight="400" font-style="normal" 
>
</g>

<g fill="none" stroke="#000000" stroke-opacity="1" stroke-width="1" stroke-linecap="square" stroke-linejoin="bevel" transform="matrix(1.00625,0,0,1.00625,354.703,472.938)"
font-family="Cantarell" font-size="11" font-weight="400" font-style="normal" 
>
</g>

<g fill="none" stroke="#000000" stroke-opacity="1" stroke-width="1" stroke-linecap="square" stroke-linejoin="bevel" transform="matrix(1.00625,0,0,1.00625,354.703,472.938)"
font-family="Cantarell" font-size="11" font-weight="400" font-style="normal" 
>
</g>

<g fill="none" stroke="#000000" stroke-opacity="1" stroke-width="1" stroke-linecap="square" stroke-linejoin="bevel" transform="matrix(1.00625,0,0,1.00625,354.703,472.938)"
font-family="Cantarell" font-size="11" font-weight="400" font-style="normal" 
>
</g>

<g fill="none" stroke="#000000" stroke-opacity="1" stroke-width="1" stroke-linecap="square" stroke-linejoin="bevel" transform="matrix(1.00625,0,0,1.00625,354.703,472.938)"
font-family="Cantarell" font-size="11" font-weight="400" font-style="normal" 
>
</g>

<g fill="none" stroke="#000000" stroke-opacity="1" stroke-width="1" stroke-linecap="square" stroke-linejoin="bevel" transform="matrix(1.00625,0,0,1.00625,354.703,472.938)"
font-family="Cantarell" font-size="11" font-weight="400" font-style="normal" 
>
</g>

<g fill="none" stroke="#000000" stroke-opacity="1" stroke-width="1" stroke-linecap="square" stroke-linejoin="bevel" transform="matrix(1.00625,0,0,1.00625,354.703,472.938)"
font-family="Sans" font-size="9" font-weight="400" font-style="normal" 
>
<text fill="#000000" fill-opacity="1" stroke="none" xml:space="preserve" x="0" y="0" font-family="Sans" font-size="9" font-weight="400" font-style="normal" 
 > 2000</text>
</g>

<g fill="none" stroke="#000000" stroke-opacity="1" stroke-width="1" stroke-linecap="square" stroke-linejoin="bevel" transform="matrix(1.00625,0,0,1.00625,354.703,472.938)"
font-family="Cantarell" font-size="11" font-weight="400" font-style="normal" 
>
</g>

<g fill="none" stroke="#000000" stroke-opacity="1" stroke-width="1" stroke-linecap="square" stroke-linejoin="bevel" transform="matrix(1.00625,0,0,1.00625,0,0)"
font-family="Cantarell" font-size="11" font-weight="400" font-style="normal" 
>
</g>

<g fill="none" stroke="#000000" stroke-opacity="1" stroke-width="1" stroke-linecap="round" stroke-linejoin="round" transform="matrix(1.00625,0,0,1.00625,0,0)"
font-family="Cantarell" font-size="11" font-weight="400" font-style="normal" 
>
<polyline fill="none" vector-effect="none" points="453.5,452.5 453.5,446.5 " />
<polyline fill="none" vector-effect="none" points="453.5,14.5 453.5,19.5 " />
</g>

<g fill="none" stroke="#000000" stroke-opacity="1" stroke-width="1" stroke-linecap="square" stroke-linejoin="bevel" transform="matrix(1.00625,0,0,1.00625,0,0)"
font-family="Cantarell" font-size="11" font-weight="400" font-style="normal" 
>
</g>

<g fill="none" stroke="#000000" stroke-opacity="1" stroke-width="1" stroke-linecap="square" stroke-linejoin="bevel" transform="matrix(1.00625,0,0,1.00625,438.222,472.938)"
font-family="Cantarell" font-size="11" font-weight="400" font-style="normal" 
>
</g>

<g fill="none" stroke="#000000" stroke-opacity="1" stroke-width="1" stroke-linecap="square" stroke-linejoin="bevel" transform="matrix(1.00625,0,0,1.00625,438.222,472.938)"
font-family="Cantarell" font-size="11" font-weight="400" font-style="normal" 
>
</g>

<g fill="none" stroke="#000000" stroke-opacity="1" stroke-width="1" stroke-linecap="square" stroke-linejoin="bevel" transform="matrix(1.00625,0,0,1.00625,438.222,472.938)"
font-family="Cantarell" font-size="11" font-weight="400" font-style="normal" 
>
</g>

<g fill="none" stroke="#000000" stroke-opacity="1" stroke-width="1" stroke-linecap="square" stroke-linejoin="bevel" transform="matrix(1.00625,0,0,1.00625,438.222,472.938)"
font-family="Cantarell" font-size="11" font-weight="400" font-style="normal" 
>
</g>

<g fill="none" stroke="#000000" stroke-opacity="1" stroke-width="1" stroke-linecap="square" stroke-linejoin="bevel" transform="matrix(1.00625,0,0,1.00625,438.222,472.938)"
font-family="Cantarell" font-size="11" font-weight="400" font-style="normal" 
>
</g>

<g fill="none" stroke="#000000" stroke-opacity="1" stroke-width="1" stroke-linecap="square" stroke-linejoin="bevel" transform="matrix(1.00625,0,0,1.00625,438.222,472.938)"
font-family="Sans" font-size="9" font-weight="400" font-style="normal" 
>
<text fill="#000000" fill-opacity="1" stroke="none" xml:space="preserve" x="0" y="0" font-family="Sans" font-size="9" font-weight="400" font-style="normal" 
 > 2500</text>
</g>

<g fill="none" stroke="#000000" stroke-opacity="1" stroke-width="1" stroke-linecap="square" stroke-linejoin="bevel" transform="matrix(1.00625,0,0,1.00625,438.222,472.938)"
font-family="Cantarell" font-size="11" font-weight="400" font-style="normal" 
>
</g>

<g fill="none" stroke="#000000" stroke-opacity="1" stroke-width="1" stroke-linecap="square" stroke-linejoin="bevel" transform="matrix(1.00625,0,0,1.00625,0,0)"
font-family="Cantarell" font-size="11" font-weight="400" font-style="normal" 
>
</g>

<g fill="none" stroke="#000000" stroke-opacity="1" stroke-width="1" stroke-linecap="round" stroke-linejoin="round" transform="matrix(1.00625,0,0,1.00625,0,0)"
font-family="Cantarell" font-size="11" font-weight="400" font-style="normal" 
>
<polyline fill="none" vector-effect="none" points="536.5,452.5 536.5,446.5 " />
<polyline fill="none" vector-effect="none" points="536.5,14.5 536.5,19.5 " />
</g>

<g fill="none" stroke="#000000" stroke-opacity="1" stroke-width="1" stroke-linecap="square" stroke-linejoin="bevel" transform="matrix(1.00625,0,0,1.00625,0,0)"
font-family="Cantarell" font-size="11" font-weight="400" font-style="normal" 
>
</g>

<g fill="none" stroke="#000000" stroke-opacity="1" stroke-width="1" stroke-linecap="square" stroke-linejoin="bevel" transform="matrix(1.00625,0,0,1.00625,521.741,472.938)"
font-family="Cantarell" font-size="11" font-weight="400" font-style="normal" 
>
</g>

<g fill="none" stroke="#000000" stroke-opacity="1" stroke-width="1" stroke-linecap="square" stroke-linejoin="bevel" transform="matrix(1.00625,0,0,1.00625,521.741,472.938)"
font-family="Cantarell" font-size="11" font-weight="400" font-style="normal" 
>
</g>

<g fill="none" stroke="#000000" stroke-opacity="1" stroke-width="1" stroke-linecap="square" stroke-linejoin="bevel" transform="matrix(1.00625,0,0,1.00625,521.741,472.938)"
font-family="Cantarell" font-size="11" font-weight="400" font-style="normal" 
>
</g>

<g fill="none" stroke="#000000" stroke-opacity="1" stroke-width="1" stroke-linecap="square" stroke-linejoin="bevel" transform="matrix(1.00625,0,0,1.00625,521.741,472.938)"
font-family="Cantarell" font-size="11" font-weight="400" font-style="normal" 
>
</g>

<g fill="none" stroke="#000000" stroke-opacity="1" stroke-width="1" stroke-linecap="square" stroke-linejoin="bevel" transform="matrix(1.00625,0,0,1.00625,521.741,472.938)"
font-family="Cantarell" font-size="11" font-weight="400" font-style="normal" 
>
</g>

<g fill="none" stroke="#000000" stroke-opacity="1" stroke-width="1" stroke-linecap="square" stroke-linejoin="bevel" transform="matrix(1.00625,0,0,1.00625,521.741,472.938)"
font-family="Sans" font-size="9" font-weight="400" font-style="normal" 
>
<text fill="#000000" fill-opacity="1" stroke="none" xml:space="preserve" x="0" y="0" font-family="Sans" font-size="9" font-weight="400" font-style="normal" 
 > 3000</text>
</g>

<g fill="none" stroke="#000000" stroke-opacity="1" stroke-width="1" stroke-linecap="square" stroke-linejoin="bevel" transform="matrix(1.00625,0,0,1.00625,521.741,472.938)"
font-family="Cantarell" font-size="11" font-weight="400" font-style="normal" 
>
</g>

<g fill="none" stroke="#000000" stroke-opacity="1" stroke-width="1" stroke-linecap="square" stroke-linejoin="bevel" transform="matrix(1.00625,0,0,1.00625,0,0)"
font-family="Cantarell" font-size="11" font-weight="400" font-style="normal" 
>
</g>

<g fill="none" stroke="#000000" stroke-opacity="1" stroke-width="1" stroke-linecap="round" stroke-linejoin="round" transform="matrix(1.00625,0,0,1.00625,0,0)"
font-family="Cantarell" font-size="11" font-weight="400" font-style="normal" 
>
<polyline fill="none" vector-effect="none" points="618.5,452.5 618.5,446.5 " />
<polyline fill="none" vector-effect="none" points="618.5,14.5 618.5,19.5 " />
</g>

<g fill="none" stroke="#000000" stroke-opacity="1" stroke-width="1" stroke-linecap="square" stroke-linejoin="bevel" transform="matrix(1.00625,0,0,1.00625,0,0)"
font-family="Cantarell" font-size="11" font-weight="400" font-style="normal" 
>
</g>

<g fill="none" stroke="#000000" stroke-opacity="1" stroke-width="1" stroke-linecap="square" stroke-linejoin="bevel" transform="matrix(1.00625,0,0,1.00625,605.259,472.938)"
font-family="Cantarell" font-size="11" font-weight="400" font-style="normal" 
>
</g>

<g fill="none" stroke="#000000" stroke-opacity="1" stroke-width="1" stroke-linecap="square" stroke-linejoin="bevel" transform="matrix(1.00625,0,0,1.00625,605.259,472.938)"
font-family="Cantarell" font-size="11" font-weight="400" font-style="normal" 
>
</g>

<g fill="none" stroke="#000000" stroke-opacity="1" stroke-width="1" stroke-linecap="square" stroke-linejoin="bevel" transform="matrix(1.00625,0,0,1.00625,605.259,472.938)"
font-family="Cantarell" font-size="11" font-weight="400" font-style="normal" 
>
</g>

<g fill="none" stroke="#000000" stroke-opacity="1" stroke-width="1" stroke-linecap="square" stroke-linejoin="bevel" transform="matrix(1.00625,0,0,1.00625,605.259,472.938)"
font-family="Cantarell" font-size="11" font-weight="400" font-style="normal" 
>
</g>

<g fill="none" stroke="#000000" stroke-opacity="1" stroke-width="1" stroke-linecap="square" stroke-linejoin="bevel" transform="matrix(1.00625,0,0,1.00625,605.259,472.938)"
font-family="Cantarell" font-size="11" font-weight="400" font-style="normal" 
>
</g>

<g fill="none" stroke="#000000" stroke-opacity="1" stroke-width="1" stroke-linecap="square" stroke-linejoin="bevel" transform="matrix(1.00625,0,0,1.00625,605.259,472.938)"
font-family="Sans" font-size="9" font-weight="400" font-style="normal" 
>
<text fill="#000000" fill-opacity="1" stroke="none" xml:space="preserve" x="0" y="0" font-family="Sans" font-size="9" font-weight="400" font-style="normal" 
 > 3500</text>
</g>

<g fill="none" stroke="#000000" stroke-opacity="1" stroke-width="1" stroke-linecap="square" stroke-linejoin="bevel" transform="matrix(1.00625,0,0,1.00625,605.259,472.938)"
font-family="Cantarell" font-size="11" font-weight="400" font-style="normal" 
>
</g>

<g fill="none" stroke="#000000" stroke-opacity="1" stroke-width="1" stroke-linecap="square" stroke-linejoin="bevel" transform="matrix(1.00625,0,0,1.00625,0,0)"
font-family="Cantarell" font-size="11" font-weight="400" font-style="normal" 
>
</g>

<g fill="none" stroke="#000000" stroke-opacity="1" stroke-width="1" stroke-linecap="round" stroke-linejoin="round" transform="matrix(1.00625,0,0,1.00625,0,0)"
font-family="Cantarell" font-size="11" font-weight="400" font-style="normal" 
>
<polyline fill="none" vector-effect="none" points="38.5,14.5 38.5,452.5 618.5,452.5 618.5,14.5 38.5,14.5 " />
</g>

<g fill="none" stroke="#000000" stroke-opacity="1" stroke-width="1" stroke-linecap="square" stroke-linejoin="bevel" transform="matrix(1.00625,0,0,1.00625,0,0)"
font-family="Cantarell" font-size="11" font-weight="400" font-style="normal" 
>
</g>

<g fill="none" stroke="#000000" stroke-opacity="1" stroke-width="1" stroke-linecap="square" stroke-linejoin="bevel" transform="matrix(1.00625,0,0,1.00625,449.904,16.1)"
font-family="Cantarell" font-size="11" font-weight="400" font-style="normal" 
>
</g>

<g fill="none" stroke="#000000" stroke-opacity="1" stroke-width="1" stroke-linecap="square" stroke-linejoin="bevel" transform="matrix(1.00625,0,0,1.00625,449.904,16.1)"
font-family="Cantarell" font-size="11" font-weight="400" font-style="normal" 
>
</g>

<g fill="none" stroke="#000000" stroke-opacity="1" stroke-width="1" stroke-linecap="square" stroke-linejoin="bevel" transform="matrix(1.00625,0,0,1.00625,449.904,16.1)"
font-family="Cantarell" font-size="11" font-weight="400" font-style="normal" 
>
</g>

<g fill="none" stroke="#000000" stroke-opacity="1" stroke-width="1" stroke-linecap="square" stroke-linejoin="bevel" transform="matrix(1.00625,0,0,1.00625,449.904,16.1)"
font-family="Cantarell" font-size="11" font-weight="400" font-style="normal" 
>
<text fill="#000000" fill-opacity="1" stroke="none" xml:space="preserve" x="4" y="15" font-family="Sans" font-size="9" font-weight="400" font-style="normal" 
 >&quot;log.txt&quot; using 1:6</text>
</g>

<g fill="none" stroke="#000000" stroke-opacity="1" stroke-width="1" stroke-linecap="square" stroke-linejoin="bevel" transform="matrix(1.00625,0,0,1.00625,449.904,16.1)"
font-family="Cantarell" font-size="11" font-weight="400" font-style="normal" 
>
</g>

<g fill="none" stroke="#000000" stroke-opacity="1" stroke-width="1" stroke-linecap="square" stroke-linejoin="bevel" transform="matrix(1,0,0,1,0,0)"
font-family="Cantarell" font-size="11" font-weight="400" font-style="normal" 
>
</g>

<g fill="none" stroke="#000000" stroke-opacity="1" stroke-width="1" stroke-linecap="square" stroke-linejoin="bevel" transform="matrix(1.00625,0,0,1.00625,449.904,16.1)"
font-family="Cantarell" font-size="11" font-weight="400" font-style="normal" 
>
</g>

<g fill="none" stroke="#000000" stroke-opacity="1" stroke-width="1" stroke-linecap="square" stroke-linejoin="bevel" transform="matrix(1.00625,0,0,1.00625,449.904,16.1)"
font-family="Cantarell" font-size="11" font-weight="400" font-style="normal" 
>
</g>

<g fill="none" stroke="#000000" stroke-opacity="1" stroke-width="1" stroke-linecap="square" stroke-linejoin="bevel" transform="matrix(1.00625,0,0,1.00625,449.904,16.1)"
font-family="Cantarell" font-size="11" font-weight="400" font-style="normal" 
>
</g>

<g fill="none" stroke="#000000" stroke-opacity="1" stroke-width="1" stroke-linecap="square" stroke-linejoin="bevel" transform="matrix(1.00625,0,0,1.00625,0,0)"
font-family="Cantarell" font-size="11" font-weight="400" font-style="normal" 
>
</g>

<g fill="none" stroke="#9400d3" stroke-opacity="1" stroke-width="1" stroke-linecap="round" stroke-linejoin="round" transform="matrix(1.00625,0,0,1.00625,0,0)"
font-family="Cantarell" font-size="11" font-weight="400" font-style="normal" 
>
<path vector-effect="none" fill-rule="evenodd" d="M571.5,26.5 L604.5,26.5"/>
</g>

<g fill="none" stroke="#000000" stroke-opacity="1" stroke-width="1" stroke-linecap="square" stroke-linejoin="bevel" transform="matrix(1.00625,0,0,1.00625,0,0)"
font-family="Cantarell" font-size="11" font-weight="400" font-style="normal" 
>
</g>

<g fill="none" stroke="#000000" stroke-opacity="1" stroke-width="1" stroke-linecap="square" stroke-linejoin="bevel" transform="matrix(1.00625,0,0,1.00625,0,0)"
font-family="Cantarell" font-size="11" font-weight="400" font-style="normal" 
>
</g>

<g fill="none" stroke="#000000" stroke-opacity="1" stroke-width="1" stroke-linecap="square" stroke-linejoin="bevel" transform="matrix(1.00625,0,0,1.00625,0,0)"
font-family="Cantarell" font-size="11" font-weight="400" font-style="normal" 
>
</g>

<g fill="none" stroke="#000000" stroke-opacity="1" stroke-width="1" stroke-linecap="square" stroke-linejoin="bevel" transform="matrix(1.00625,0,0,1.00625,0,0)"
font-family="Cantarell" font-size="11" font-weight="400" font-style="normal" 
>
</g>

<g fill="none" stroke="#9400d3" stroke-opacity="1" stroke-width="1" stroke-linecap="round" stroke-linejoin="round" transform="matrix(1.00625,0,0,1.00625,0,0)"
font-family="Cantarell" font-size="11" font-weight="400" font-style="normal" 
>
<polyline fill="none" vector-effect="none" points="47.3,432.6 47.3,432.6 47.5,432.6 47.6,432.6 47.8,432.6 48,432.6 48.1,432.6 48.3,432.6 48.4,432.6 48.6,432.6 48.8,432.6 48.9,432.6 49.1,432.5 49.3,432.5 49.4,432.6 49.6,432.6 49.8,432.6 49.9,432.6 50.1,432.6 50.3,432.6 50.4,432.6 50.6,432.6 50.8,432.6 50.9,432.6 51.1,432.5 51.3,432.5 51.4,432.6 51.6,432.5 51.8,432.6 51.9,432.5 52.1,432.6 52.3,432.6 52.4,432.6 52.6,432.6 52.8,432.6 52.9,432.6 53.1,430.4 53.3,430.4 53.4,430.4 53.6,430.4 53.8,428 53.9,428 54.1,428.1 54.3,425.4 54.4,425.4 54.6,425.4 54.8,422.4 54.9,422.4 55.1,422.4 55.2,419.1 55.4,419.1 55.6,419.2 55.7,419.2 55.9,415.6 56.1,415.6 56.2,415.6 56.4,415.5 56.6,411.4 56.7,411.4 56.9,411.4 57.1,411.5 57.2,411.4 57.4,411.5 57.6,407 57.7,407 57.9,406.9 58.1,407 58.2,407 58.4,407 58.6,407 58.7,402.1 58.9,402 59.1,402 59.2,402 59.4,402 59.6,402 59.7,402 59.9,402 60.1,402 60.2,402 60.4,402 60.6,402 60.7,401.9 60.9,401.9 61.1,401.9 61.2,401.9 61.4,401.9 61.6,402 61.7,402 61.9,402 62,402 62.2,402 62.4,402 62.5,401.9 62.7,401.9 62.9,402 63,402 63.2,402 63.4,402 63.5,402 63.7,402.1 63.9,402.1 64,402 64.2,401.9 64.4,401.9 64.5,401.9 64.7,401.9 64.9,402 65,402 65.2,402 65.4,402 65.5,402 65.7,402 65.9,402 66,402 66.2,402 66.4,402 66.5,402 66.7,402 66.9,402.1 67,402 67.2,402 67.4,402 67.5,402 67.7,402 67.9,402 68,402 68.2,402 68.3,402.1 68.5,402 68.7,401.9 68.8,401.9 69,402 69.2,402 69.3,402 69.5,402 69.7,402 69.8,402 70,402.1 70.2,402 70.3,402 70.5,402.1 70.7,402 70.8,402 71,402 71.2,401.9 71.3,402 71.5,401.9 71.7,401.9 71.8,401.9 72,401.9 72.2,401.9 72.3,402 72.5,402 72.7,401.9 72.8,402 73,402 73.2,402 73.3,402 73.5,402 73.7,402 73.8,402 74,402 74.2,402 74.3,402 74.5,402.1 74.7,402.1 74.8,401.9 75,401.9 75.1,401.8 75.3,401.9 75.5,401.9 75.6,401.9 75.8,401.9 76,401.9 76.1,401.9 76.3,401.9 76.5,401.9 76.6,402 76.8,401.9 77,402 77.1,402 77.3,402 77.5,402 77.6,402 77.8,402 78,402 78.1,402 78.3,402 78.5,402 78.6,402 78.8,402 79,402 79.1,402 79.3,402 79.5,402 79.6,402 79.8,402 80,401.9 80.1,402 80.3,402 80.5,402 80.6,402 80.8,402 81,402 81.1,402 81.3,401.9 81.4,401.9 81.6,401.9 81.8,401.9 81.9,401.9 82.1,401.9 82.3,402 82.4,402 82.6,402 82.8,402 82.9,402 83.1,401.9 83.3,401.9 83.4,401.9 83.6,401.9 83.8,402 83.9,402 84.1,402 84.3,402 84.4,402 84.6,402 84.8,402 84.9,402 85.1,402 85.3,402 85.4,402 85.6,402 85.8,402 85.9,401.9 86.1,402 86.3,402 86.4,402 86.6,402 86.8,402 86.9,402 87.1,402 87.3,402 87.4,402 87.6,402 87.8,402 87.9,402 88.1,402 88.2,401.9 88.4,401.9 88.6,401.9 88.7,401.9 88.9,401.9 89.1,401.9 89.2,401.9 89.4,401.9 89.6,401.9 89.7,402 89.9,402 90.1,402 90.2,402 90.4,402 90.6,402 90.7,402 90.9,402 91.1,402 91.2,402 91.4,402 91.6,402 91.7,402 91.9,401.9 92.1,402 92.2,402 92.4,402 92.6,402 92.7,402 92.9,402 93.1,402 93.2,402 93.4,401.9 93.6,401.9 93.7,402 93.9,401.9 94.1,401.9 94.2,402 94.4,402 94.6,402 94.7,402 94.9,401.9 95,402 95.2,402 95.4,402 95.5,402 95.7,402 95.9,402 96,401.9 96.2,402 96.4,402 96.5,402 96.7,402 96.9,402 97,402 97.2,402 97.4,402.1 97.5,402 97.7,402 97.9,402 98,402 98.2,402 98.4,402 98.5,402 98.7,402 98.9,402 99,402 99.2,402 99.4,402 99.5,402 99.7,402 99.9,402 100,402 100.2,402 100.4,402 100.5,401.9 100.7,402 100.9,401.9 101,402 101.2,402 101.3,402 101.5,402 101.7,402 101.8,402 102,401.9 102.2,402 102.3,402 102.5,402 102.7,402 102.8,402 103,402 103.2,402 103.3,402 103.5,401.9 103.7,396.4 103.8,396.5 104,396.5 104.2,396.5 104.3,396.4 104.5,396.5 104.7,390.3 104.8,390.4 105,390.3 105.2,390.4 105.3,390.3 105.5,390.2 105.7,383.5 105.8,383.5 106,383.5 106.2,383.5 106.3,383.5 106.5,383.5 106.7,383.5 106.8,376 107,376 107.2,375.9 107.3,376 107.5,376 107.7,376 107.8,376 108,375.9 108.1,376 108.3,376 108.5,375.9 108.6,375.9 108.8,376 109,376 109.1,376 109.3,376 109.5,376 109.6,376 109.8,376 110,375.9 110.1,376 110.3,375.9 110.5,376 110.6,376 110.8,375.9 111,375.9 111.1,376 111.3,376 111.5,376 111.6,376 111.8,376 112,375.9 112.1,376 112.3,375.9 112.5,376 112.6,375.9 112.8,376 113,376 113.1,376 113.3,376 113.5,375.9 113.6,376 113.8,376 114,376 114.1,376 114.3,375.8 114.4,376 114.6,376 114.8,376 114.9,376 115.1,376 115.3,376 115.4,376 115.6,375.9 115.8,376 115.9,376 116.1,376 116.3,376 116.4,376 116.6,376 116.8,376 116.9,375.9 117.1,376 117.3,376 117.4,376 117.6,376 117.8,375.9 117.9,376 118.1,376 118.3,376 118.4,376 118.6,376 118.8,376 118.9,376 119.1,376 119.3,376 119.4,376 119.6,376 119.8,375.9 119.9,376 120.1,376 120.3,375.9 120.4,367.5 120.6,367.6 120.8,367.5 120.9,367.6 121.1,358.1 121.2,358.3 121.4,358.1 121.6,358.1 121.7,348 121.9,348 122.1,348.1 122.2,348 122.4,348 122.6,347.8 122.7,348.2 122.9,336.7 123.1,336.9 123.2,336.6 123.4,336.7 123.6,336.3 123.7,336.4 123.9,336.6 124.1,336.7 124.2,336.9 124.4,336.8 124.6,336.5 124.7,336.8 124.9,336.3 125.1,336.4 125.2,336.4 125.4,336.6 125.6,336.7 125.7,336.3 125.9,336.5 126.1,336.7 126.2,336.7 126.4,336.4 126.6,336.6 126.7,336.6 126.9,336.6 127.1,336.4 127.2,336.1 127.4,336.3 127.5,336.2 127.7,336.3 127.9,336.3 128,336.3 128.2,336.3 128.4,336.3 128.5,336.3 128.7,336.3 128.9,336.3 129,336.3 129.2,336.5 129.4,336.5 129.5,336.2 129.7,336.6 129.9,336.1 130,336.4 130.2,336.7 130.4,336.2 130.5,336.2 130.7,336.2 130.9,336.2 131,336.2 131.2,336.3 131.4,336.4 131.5,336.4 131.7,336.4 131.9,336.5 132,336.4 132.2,336.5 132.4,336.5 132.5,336.4 132.7,336.4 132.9,336.5 133,336.6 133.2,336.1 133.4,336.2 133.5,336.6 133.7,336.4 133.9,336.1 134,336.3 134.2,336.5 134.3,336.5 134.5,336.1 134.7,336.3 134.8,336.4 135,336.4 135.2,336.1 135.3,336.2 135.5,336.5 135.7,336.1 135.8,336.3 136,336.3 136.2,336.5 136.3,336 136.5,336.2 136.7,336.3 136.8,336.7 137,336.6 137.2,336.3 137.3,336.2 137.5,336.5 137.7,335.9 137.8,336.3 138,336.3 138.2,336.4 138.3,336.1 138.5,336.2 138.7,336.4 138.8,336.1 139,336.3 139.2,336.5 139.3,336.6 139.5,336.1 139.7,336.3 139.8,336.5 140,336.1 140.2,336.2 140.3,336.5 140.5,336.3 140.7,336.5 140.8,336.5 141,336.3 141.1,336.5 141.3,336.3 141.5,336.4 141.6,336.1 141.8,336.3 142,336.4 142.1,336.4 142.3,336.1 142.5,336.3 142.6,336.5 142.8,336.3 143,336.1 143.1,336.3 143.3,336.5 143.5,336.1 143.6,336.3 143.8,336.5 144,336.6 144.1,336.1 144.3,336.3 144.5,336.4 144.6,336.4 144.8,336.1 145,336.2 145.1,336.4 145.3,336.4 145.5,336.5 145.6,336.1 145.8,336.2 146,336.4 146.1,336.1 146.3,336.2 146.5,336.3 146.6,336.6 146.8,336.1 147,336.3 147.1,336.3 147.3,336.4 147.4,336.5 147.6,336.5 147.8,336.3 147.9,336.1 148.1,323.6 148.3,323.5 148.4,323.9 148.6,323.6 148.8,323.6 148.9,323.9 149.1,323.3 149.3,323.4 149.4,323.9 149.6,309.1 149.8,309.1 149.9,309.6 150.1,309.5 150.3,310 150.4,309.1 150.6,309.7 150.8,309.3 150.9,294 151.1,294.4 151.3,293.3 151.4,293.8 151.6,293.8 151.8,294.1 151.9,293.6 152.1,293.6 152.3,294.3 152.4,294.5 152.6,294.1 152.8,276.3 152.9,276.6 153.1,276.1 153.3,276.5 153.4,276.9 153.6,275.6 153.8,276.5 153.9,278 154.1,276.9 154.2,276.8 154.4,277 154.6,277.1 154.7,278.4 154.9,277.1 155.1,276 155.2,276.4 155.4,276.6 155.6,277.2 155.7,276.3 155.9,276.7 156.1,277.1 156.2,275.6 156.4,275.7 156.6,276.6 156.7,277.7 156.9,275.4 157.1,275.9 157.2,276.5 157.4,276.5 157.6,276.9 157.7,277 157.9,277.5 158.1,277 158.2,276.9 158.4,277.3 158.6,275.8 158.7,276.9 158.9,276.8 159.1,257.6 159.2,258.3 159.4,256.1 159.6,256.5 159.7,257.1 159.9,256.7 160.1,256.7 160.2,258.3 160.4,257 160.5,256.5 160.7,256.5 160.9,256.9 161,257.3 161.2,256.1 161.4,256.7 161.5,257.4 161.7,258 161.9,256.2 162,257.1 162.2,256.6 162.4,257.1 162.5,256.6 162.7,256.6 162.9,256.6 163,257.8 163.2,257.2 163.4,256.8 163.5,257.5 163.7,256.1 163.9,256.5 164,256.7 164.2,256.9 164.4,257.1 164.5,257.6 164.7,256.9 164.9,256.9 165,256.1 165.2,256.6 165.4,256.6 165.5,257.4 165.7,257.5 165.9,257.1 166,256.8 166.2,256.8 166.4,257 166.5,256.9 166.7,256.8 166.9,257 167,257.5 167.2,259.1 167.3,258.3 167.5,256.3 167.7,256.7 167.8,256.9 168,256.8 168.2,256.9 168.3,258.1 168.5,257.9 168.7,258.2 168.8,258.1 169,257.5 169.2,257.4 169.3,258.1 169.5,258.3 169.7,256.7 169.8,257.3 170,256.8 170.2,257.4 170.3,257.1 170.5,257.8 170.7,258.2 170.8,257.3 171,257.7 171.2,258.4 171.3,257.4 171.5,256.6 171.7,257.1 171.8,257.8 172,261.6 172.2,257.6 172.3,258.4 172.5,255.9 172.7,256.8 172.8,257.4 173,257.5 173.2,257.6 173.3,256.5 173.5,256.3 173.7,257.2 173.8,257.2 174,256.9 174.1,256.8 174.3,256.7 174.5,257.1 174.6,257.1 174.8,257.1 175,257 175.1,257.2 175.3,257 175.5,257.5 175.6,256.6 175.8,257.4 176,257.3 176.1,257.8 176.3,257.7 176.5,257.2 176.6,257.2 176.8,257.2 177,257.6 177.1,257.2 177.3,257.7 177.5,256.7 177.6,256.7 177.8,257 178,257.5 178.1,257 178.3,257.1 178.5,257.2 178.6,257.2 178.8,257.2 179,257.2 179.1,257.7 179.3,257.8 179.5,257.7 179.6,257.3 179.8,257.7 180,258.1 180.1,257.1 180.3,257.4 180.4,256.6 180.6,257.1 180.8,257.2 180.9,256.8 181.1,256.7 181.3,256.8 181.4,257.2 181.6,257.2 181.8,257.3 181.9,257.8 182.1,257.3 182.3,257.8 182.4,257.6 182.6,260.2 182.8,256.3 182.9,256 183.1,255.9 183.3,255.8 183.4,256.6 183.6,256.4 183.8,256.1 183.9,256.1 184.1,256 184.3,256.3 184.4,256.1 184.6,256.7 184.8,256.3 184.9,256.6 185.1,256.7 185.3,256.8 185.4,256 185.6,256.5 185.8,256.5 185.9,256.5 186.1,256.1 186.3,256.5 186.4,256.5 186.6,256.6 186.8,256.5 186.9,256 187.1,256.4 187.2,256.5 187.4,256.5 187.6,256 187.7,256.5 187.9,256.5 188.1,256.5 188.2,256 188.4,256.5 188.6,256.5 188.7,256.5 188.9,256 189.1,256.6 189.2,256.5 189.4,256.5 189.6,258.8 189.7,256.9 189.9,256.5 190.1,256.6 190.2,257 190.4,257 190.6,257 190.7,256.5 190.9,259.1 191.1,257 191.2,257.1 191.4,257.1 191.6,258.4 191.7,257.1 191.9,257 192.1,257 192.2,258.3 192.4,256.7 192.6,257.4 192.7,256.7 192.9,256.7 193.1,257.3 193.2,256.8 193.4,257.4 193.5,257.2 193.7,258.4 193.9,257 194,257.6 194.2,256.8 194.4,257.9 194.5,256.1 194.7,256.6 194.9,257.5 195,256.8 195.2,257.2 195.4,257.1 195.5,257.4 195.7,257.4 195.9,259.8 196,256.5 196.2,257.1 196.4,257.8 196.5,258.4 196.7,257.3 196.9,257.1 197,257.3 197.2,256.8 197.4,257.3 197.5,257.5 197.7,256.8 197.9,257 198,257 198.2,257.5 198.4,257.4 198.5,256.7 198.7,257.7 198.9,256.6 199,257.1 199.2,257.1 199.4,256.3 199.5,256.5 199.7,256.8 199.9,256.8 200,256.5 200.2,256.3 200.3,258.9 200.5,257.6 200.7,257.6 200.8,257.6 201,256.8 201.2,257.2 201.3,257.5 201.5,257.5 201.7,257.5 201.8,258.1 202,258.4 202.2,257.9 202.3,257.7 202.5,258.1 202.7,258.2 202.8,256.8 203,257.2 203.2,258.1 203.3,257.6 203.5,258.3 203.7,256.6 203.8,257.3 204,260.3 204.2,258.4 204.3,257.9 204.5,257.3 204.7,256.7 204.8,257.2 205,257.4 205.2,256.8 205.3,256.7 205.5,257.1 205.7,257.3 205.8,258.1 206,257.3 206.2,257.7 206.3,257.9 206.5,258.1 206.7,257.5 206.8,257.4 207,258.7 207.1,258.7 207.3,259.2 207.5,257.9 207.6,259.5 207.8,258.6 208,256 208.1,256.4 208.3,256.5 208.5,256.7 208.6,257.2 208.8,256.7 209,256.8 209.1,256.8 209.3,256.7 209.5,258.3 209.6,256 209.8,256.6 210,256.8 210.1,256 210.3,255.6 210.5,256 210.6,256.5 210.8,256.7 211,256.2 211.1,256.7 211.3,256.7 211.5,256.7 211.6,259.1 211.8,256.8 212,256.8 212.1,257.2 212.3,256.8 212.5,257.2 212.6,256.7 212.8,257.3 213,257 213.1,257.4 213.3,256.5 213.4,256.9 213.6,256.9 213.8,257.3 213.9,257.3 214.1,257.3 214.3,256.8 214.4,257.4 214.6,257.7 214.8,257.7 214.9,257.9 215.1,257.9 215.3,257.2 215.4,256.7 215.6,257.9 215.8,257.7 215.9,257.4 216.1,257 216.3,257.2 216.4,257.6 216.6,257.4 216.8,257 216.9,257.3 217.1,257.9 217.3,257.6 217.4,257.9 217.6,257.4 217.8,256.4 217.9,235.6 218.1,234.8 218.3,235.2 218.4,235.9 218.6,236.2 218.8,236.5 218.9,235.7 219.1,236.5 219.3,236.5 219.4,236 219.6,237 219.8,236.4 219.9,234.3 220.1,235.2 220.2,235.7 220.4,236 220.6,236.7 220.7,236.6 220.9,236.7 221.1,235.1 221.2,236 221.4,236 221.6,236.8 221.7,237 221.9,236.1 222.1,236.1 222.2,235.6 222.4,235.3 222.6,235.4 222.7,235.3 222.9,234.7 223.1,234.7 223.2,234.6 223.4,234.6 223.6,235.9 223.7,213 223.9,211.9 224.1,212.4 224.2,212.2 224.4,211.5 224.6,212.4 224.7,212.4 224.9,212.6 225.1,212.1 225.2,212.9 225.4,217.8 225.6,211.6 225.7,211.6 225.9,212.4 226.1,212 226.2,215.7 226.4,214.2 226.5,213 226.7,210.8 226.9,212.1 227,212.5 227.2,213 227.4,212.4 227.5,212.5 227.7,211.4 227.9,211.4 228,211.5 228.2,211.9 228.4,211.7 228.5,211.6 228.7,211.6 228.9,212.4 229,212.6 229.2,212.7 229.4,212.8 229.5,212.3 229.7,213.1 229.9,213.1 230,213.3 230.2,213.6 230.4,211.6 230.5,212.3 230.7,212.7 230.9,210.6 231,211.3 231.2,211.5 231.4,212.5 231.5,212.4 231.7,213.5 231.9,212.5 232,213.8 232.2,211.8 232.4,212.3 232.5,212.5 232.7,212.3 232.9,212.4 233,213.1 233.2,210.8 233.3,211.9 233.5,212.5 233.7,213.2 233.8,213.3 234,212.5 234.2,212.7 234.3,213.2 234.5,212.7 234.7,210.6 234.8,210.4 235,210.7 235.2,211.5 235.3,211.6 235.5,212.4 235.7,212.5 235.8,212.8 236,212.8 236.2,212.2 236.3,211.8 236.5,211.6 236.7,212.4 236.8,212.1 237,212.4 237.2,212 237.3,212.5 237.5,212.1 237.7,211.3 237.8,213 238,212.8 238.2,212.4 238.3,211.7 238.5,211 238.7,211.5 238.8,212.6 239,212.4 239.2,213 239.3,211.9 239.5,213.6 239.7,212.8 239.8,212.5 240,210.6 240.1,211.4 240.3,212.5 240.5,212.1 240.6,212 240.8,213 241,212.5 241.1,211.6 241.3,216.5 241.5,213.5 241.6,213.2 241.8,210.6 242,211.6 242.1,216.5 242.3,212.9 242.5,212.3 242.6,212.8 242.8,211.3 243,211.5 243.1,212.5 243.3,212.8 243.5,212.5 243.6,212.8 243.8,212.4 244,212.5 244.1,217.3 244.3,210.9 244.5,212.5 244.6,212.3 244.8,212.6 245,213.7 245.1,212.8 245.3,212.4 245.5,212.7 245.6,213.4 245.8,213.2 246,213.4 246.1,213.7 246.3,212.9 246.4,212 246.6,211.6 246.8,212.7 246.9,212.9 247.1,212.8 247.3,213.3 247.4,212.1 247.6,213.1 247.8,212.8 247.9,210.8 248.1,211.9 248.3,212.5 248.4,212.3 248.6,212.8 248.8,214 248.9,214.8 249.1,210.7 249.3,212.2 249.4,212.4 249.6,212.7 249.8,212.7 249.9,210.9 250.1,211.3 250.3,212.3 250.4,212.3 250.6,212.8 250.8,213 250.9,211.3 251.1,211.6 251.3,211.6 251.4,212.8 251.6,212.2 251.8,213.1 251.9,212.9 252.1,210.6 252.3,212 252.4,211.5 252.6,213.3 252.8,211 252.9,212.2 253.1,215.6 253.2,212.4 253.4,212.1 253.6,212.2 253.7,212.1 253.9,214.7 254.1,212.7 254.2,213.6 254.4,214.7 254.6,213.3 254.7,212.8 254.9,213.5 255.1,213.3 255.2,211.2 255.4,211.2 255.6,211.7 255.7,212.6 255.9,212.9 256.1,211.9 256.2,211.9 256.4,211.7 256.6,212 256.7,211.9 256.9,211.5 257.1,211.4 257.2,212.1 257.4,212.5 257.6,211.7 257.7,211.7 257.9,212.2 258.1,211.6 258.2,212 258.4,211.9 258.6,211.7 258.7,213.1 258.9,213.1 259.1,212.9 259.2,212.8 259.4,210.6 259.5,211.5 259.7,211.7 259.9,212.2 260,212.1 260.2,212.3 260.4,212.6 260.5,211.7 260.7,212.6 260.9,212.1 261,212.5 261.2,212.4 261.4,212.2 261.5,211.4 261.7,211.6 261.9,211.6 262,212.4 262.2,211.4 262.4,211.3 262.5,211.6 262.7,211.7 262.9,212.3 263,211.7 263.2,211.9 263.4,212.2 263.5,213.3 263.7,210.9 263.9,211.2 264,211.5 264.2,211.7 264.4,212.7 264.5,212 264.7,211.8 264.9,211.8 265,211.7 265.2,211.9 265.4,213.4 265.5,212.3 265.7,211.4 265.9,211.7 266,212.9 266.2,217 266.3,214 266.5,213.9 266.7,212.9 266.8,213.8 267,212.8 267.2,213.6 267.3,216.6 267.5,213.6 267.7,213.9 267.8,211.8 268,213.6 268.2,216.1 268.3,211.3 268.5,212.5 268.7,212.3 268.8,213.3 269,216.9 269.2,212.2 269.3,211.4 269.5,211.2 269.7,211 269.8,213.5 270,213.6 270.2,213.1 270.3,213.7 270.5,213.2 270.7,216.5 270.8,211.8 271,211.3 271.2,210.3 271.3,211.2 271.5,211.4 271.7,210.5 271.8,211.2 272,211.2 272.2,210.5 272.3,211.3 272.5,211.2 272.6,211.8 272.8,212.1 273,211.3 273.1,211.3 273.3,211.2 273.5,212 273.6,212.4 273.8,211 274,211.8 274.1,211.8 274.3,211.8 274.5,211.2 274.6,210.9 274.8,213 275,212.1 275.1,212.4 275.3,212.6 275.5,212.5 275.6,212.5 275.8,211.6 276,212.8 276.1,216.6 276.3,212.4 276.5,212.3 276.6,211.3 276.8,213.3 277,216.9 277.1,211.6 277.3,211.9 277.5,211.9 277.6,211.8 277.8,211.8 278,211.8 278.1,211.8 278.3,212 278.5,212.7 278.6,214.2 278.8,212.9 279,212.3 279.1,213.1 279.3,212.1 279.4,212.5 279.6,212.8 279.8,211.7 279.9,210.5 280.1,210.8 280.3,211.3 280.4,211.1 280.6,211.2 280.8,211.2 280.9,211.8 281.1,212.6 281.3,210.9 281.4,210.3 281.6,211.7 281.8,211 281.9,211.1 282.1,211 282.3,211.1 282.4,211.2 282.6,210.6 282.8,211.5 282.9,212 283.1,212.5 283.3,212.7 283.4,212.5 283.6,210.6 283.8,212.1 283.9,187.7 284.1,186.3 284.3,186.3 284.4,186.3 284.6,187.4 284.8,186.7 284.9,186.7 285.1,186.3 285.3,186.3 285.4,190.4 285.6,185.1 285.8,185.6 285.9,184.6 286.1,184.5 286.2,184.5 286.4,184.6 286.6,184.6 286.7,185.1 286.9,184.8 287.1,184.9 287.2,185.4 287.4,185.9 287.6,187.2 287.7,185.7 287.9,157.6 288.1,156.8 288.2,156.9 288.4,158 288.6,157.8 288.7,156.7 288.9,157.3 289.1,157.1 289.2,158 289.4,155.4 289.6,155.2 289.7,156.5 289.9,156.8 290.1,156.5 290.2,156.9 290.4,157.9 290.6,156.9 290.7,157.9 290.9,157.1 291.1,158 291.2,157.1 291.4,158 291.6,157.5 291.7,157.9 291.9,158 292.1,156.8 292.2,156.6 292.4,157.9 292.5,158 292.7,155.9 292.9,155.6 293,157.4 293.2,156.2 293.4,157.1 293.5,158 293.7,163 293.9,158.5 294,162.1 294.2,156.2 294.4,156.5 294.5,157.5 294.7,158 294.9,154.8 295,155.9 295.2,156.4 295.4,158.7 295.5,154.8 295.7,156.2 295.9,155.9 296,155.8 296.2,156.9 296.4,157 296.5,156.5 296.7,157 296.9,158.1 297,158 297.2,155.2 297.4,154.7 297.5,156.7 297.7,156.3 297.9,157.8 298,156 298.2,161.9 298.4,157.4 298.5,165.9 298.7,159.8 298.9,158.2 299,159.3 299.2,158 299.3,159.6 299.5,158 299.7,159.7 299.8,158 300,159.8 300.2,158.7 300.3,154.6 300.5,154.3 300.7,156 300.8,155.4 301,157.3 301.2,157 301.3,159 301.5,156.9 301.7,156 301.8,155.8 302,155.6 302.2,154.7 302.3,159.4 302.5,155 302.7,156.4 302.8,157.8 303,156.3 303.2,157.7 303.3,157.9 303.5,159.2 303.7,157.8 303.8,157.5 304,156.4 304.2,157.7 304.3,158.3 304.5,154.8 304.7,154.4 304.8,156.4 305,156 305.2,156.2 305.3,156.1 305.5,157.1 305.6,158.6 305.8,157.2 306,156.6 306.1,162.2 306.3,155.7 306.5,156.8 306.6,158.5 306.8,157.5 307,157.3 307.1,157.4 307.3,157.5 307.5,157.1 307.6,157.3 307.8,157.5 308,157.9 308.1,156.3 308.3,157.4 308.5,156.8 308.6,157.5 308.8,157.8 309,158.1 309.1,158.9 309.3,159.1 309.5,156.3 309.6,157.6 309.8,157.4 310,163.1 310.1,158.2 310.3,157.4 310.5,157.5 310.6,157.4 310.8,158.6 311,157.8 311.1,158.7 311.3,157.5 311.5,158.9 311.6,157.9 311.8,154.8 312,157.1 312.1,156.6 312.3,157.1 312.4,156.1 312.6,156 312.8,154.9 312.9,154.7 313.1,156.1 313.3,156 313.4,156 313.6,156 313.8,156 313.9,156 314.1,156.3 314.3,156.4 314.4,162.6 314.6,157.8 314.8,157.3 314.9,157.8 315.1,157.6 315.3,157.6 315.4,157.7 315.6,157.6 315.8,157.4 315.9,156.4 316.1,158.3 316.3,158 316.4,158 316.6,159.1 316.8,159.4 316.9,155.8 317.1,154.5 317.3,156.1 317.4,157.2 317.6,156.6 317.8,156.8 317.9,157.3 318.1,157.5 318.3,162.7 318.4,157.8 318.6,157.6 318.8,157.4 318.9,157.1 319.1,157 319.2,157.2 319.4,157 319.6,157.2 319.7,157 319.9,157.1 320.1,157 320.2,157.2 320.4,157.6 320.6,156.1 320.7,155.9 320.9,123.7 321.1,124.2 321.2,123.5 321.4,124 321.6,123.8 321.7,123.7 321.9,125.5 322.1,125.6 322.2,123.2 322.4,122.3 322.6,123.2 322.7,125.3 322.9,124.5 323.1,126.1 323.2,126.1 323.4,127.2 323.6,125.1 323.7,121.5 323.9,121.1 324.1,123 324.2,124.1 324.4,124.6 324.6,125.2 324.7,125.6 324.9,122.2 325.1,123.7 325.2,128.9 325.4,126.4 325.5,125.4 325.7,126.6 325.9,125 326,122.9 326.2,123.6 326.4,124 326.5,124 326.7,123.8 326.9,122.7 327,126.1 327.2,126.8 327.4,125.2 327.5,124.9 327.7,125.3 327.9,125.5 328,124.8 328.2,125.6 328.4,86.1 328.5,85.7 328.7,88.3 328.9,88.1 329,91.2 329.2,85.4 329.4,85.6 329.5,87.5 329.7,90.1 329.9,90.7 330,89.1 330.2,90.2 330.4,90 330.5,89.1 330.7,88.9 330.9,90.2 331,88.8 331.2,91.5 331.4,89.9 331.5,90 331.7,96 331.9,91.5 332,91.3 332.2,92.2 332.3,92.6 332.5,95.8 332.7,92.5 332.8,90.1 333,94.5 333.2,92.6 333.3,96.2 333.5,93.4 333.7,91.4 333.8,96 334,92.6 334.2,94.4 334.3,87 334.5,85.9 334.7,91.1 334.8,87.7 335,88.5 335.2,92 335.3,88.2 335.5,91.9 335.7,95.7 335.8,91.8 336,86.4 336.2,85.8 336.3,88.8 336.5,87.9 336.7,87.5 336.8,90.8 337,88.1 337.2,88.6 337.3,86.9 337.5,88.8 337.7,49.8 337.8,46.2 338,45.5 338.2,48.9 338.3,50.8 338.5,52.1 338.6,48.4 338.8,50.1 339,48.8 339.1,49.7 339.3,50 339.5,50.3 339.6,49.7 339.8,49.6 340,59.3 340.1,52 340.3,49.4 340.5,52 340.6,49.8 340.8,49.7 341,49.8 341.1,48.8 341.3,49.4 341.5,49.5 341.6,47.1 341.8,49.2 342,49.6 342.1,50.1 342.3,50.5 342.5,50.4 342.6,51.2 342.8,56 343,49.9 343.1,49 343.3,51.2 343.5,51.7 343.6,51.3 343.8,52.1 344,51.3 344.1,51 344.3,51.8 344.5,50.6 344.6,51.4 344.8,51.1 345,50.6 345.1,51 345.3,45.8 345.4,45.6 345.6,48.5 345.8,48.5 345.9,48.5 346.1,49.1 346.3,49.8 346.4,51.2 346.6,52.7 346.8,48.4 346.9,48.5 347.1,48.7 347.3,48.5 347.4,50.8 347.6,46.2 347.8,45.7 347.9,48.5 348.1,48.6 348.3,48.4 348.4,49.5 348.6,49.7 348.8,52.3 348.9,51.5 349.1,51.3 349.3,51.3 349.4,51.1 349.6,45.9 349.8,45.7 349.9,48.8 350.1,48.6 350.3,48.5 350.4,45.8 350.6,45.5 350.8,47.8 350.9,50.5 351.1,48.5 351.3,49.3 351.4,53.6 351.6,51.5 351.8,51 351.9,48.4 352.1,45.6 352.2,49.4 352.4,51.5 352.6,49.7 352.7,50.5 352.9,48.8 353.1,49.7 353.2,49.1 353.4,49.2 353.6,49.5 353.7,52.2 353.9,49.9 354.1,49.6 354.2,49.8 354.4,49.7 354.6,50.2 354.7,51.2 354.9,51.3 355.1,52.4 355.2,51.3 355.4,49.9 355.6,50.9 355.7,46.7 355.9,49.3 356.1,50.2 356.2,50.6 356.4,51 356.6,51 356.7,49.8 356.9,48.1 357.1,53.4 357.2,51.6 357.4,51.7 357.6,52.1 357.7,52.1 357.9,52.1 358.1,52.1 358.2,52.1 358.4,50.1 358.5,45.9 358.7,48.3 358.9,50.1 359,50.5 359.2,51.4 359.4,51.4 359.5,51.2 359.7,51 359.9,51.7 360,53.6 360.2,53 360.4,53.4 360.5,53.4 360.7,52.5 360.9,52.6 361,52.4 361.2,53.2 361.4,46.3 361.5,45.5 361.7,47.9 361.9,49.4 362,48.5 362.2,49.1 362.4,51.3 362.5,49.4 362.7,51.5 362.9,48 363,48 363.2,49 363.4,48.4 363.5,48 363.7,48.7 363.9,48.2 364,48.4 364.2,48.5 364.4,48.4 364.5,59.1 364.7,49.7 364.9,48.5 365,48.7 365.2,48 365.3,48.4 365.5,48.5 365.7,51 365.8,51.2 366,51.5 366.2,46.9 366.3,49.4 366.5,51.4 366.7,47.3 366.8,50 367,50.2 367.2,50.4 367.3,47.7 367.5,47.7 367.7,50.5 367.8,60.1 368,52.8 368.2,48.5 368.3,51 368.5,51.2 368.7,51.1 368.8,51.4 369,49.6 369.2,47.4 369.3,50 369.5,45.9 369.7,48.5 369.8,48.4 370,48.6 370.2,50.1 370.3,50.9 370.5,50.8 370.7,51.1 370.8,51.5 371,52.4 371.2,52.1 371.3,52.7 371.5,51.3 371.6,58.5 371.8,55.1 372,51.4 372.1,51.1 372.3,47.9 372.5,45.8 372.6,48.5 372.8,48.5 373,48.3 373.1,51.3 373.3,51.8 373.5,51.5 373.6,51.2 373.8,47.4 374,50.1 374.1,50.3 374.3,51.1 374.5,52.2 374.6,48.7 374.8,46 375,50.3 375.1,48.8 375.3,48.7 375.5,49.2 375.6,50.2 375.8,51 376,50.8 376.1,51.2 376.3,51 376.5,51.6 376.6,51.3 376.8,50.4 377,52.1 377.1,52.3 377.3,53.5 377.5,49 377.6,46.3 377.8,48.7 378,49.3 378.1,49.4 378.3,50.1 378.4,52.1 378.6,50.2 378.8,51.9 378.9,50.2 379.1,50.3 379.3,50.2 379.4,50 379.6,51.2 379.8,47.3 379.9,48.4 380.1,49.7 380.3,49.9 380.4,49.7 380.6,52.1 380.8,49.6 380.9,49.6 381.1,49.6 381.3,50.1 381.4,48.8 381.6,49.7 381.8,48.1 381.9,49.4 382.1,46.7 382.3,46.1 382.4,48.7 382.6,49.1 382.8,49.1 382.9,63.3 383.1,49.6 383.3,49.6 383.4,49.9 383.6,50.6 383.8,52 383.9,51.5 384.1,52.5 384.3,52.7 384.4,52.2 384.6,52.3 384.8,52.1 384.9,52.4 385.1,46.7 385.2,49.3 385.4,49.3 385.6,50.3 385.7,50.3 385.9,50.2 386.1,48.5 386.2,66.7 386.4,52.9 386.6,48.5 386.7,54.7 386.9,50.9 387.1,50.3 387.2,50.6 387.4,50.4 387.6,49.9 387.7,50.4 387.9,50.2 388.1,50.2 388.2,50.3 388.4,50.5 388.6,50.1 388.7,50.5 388.9,52.5 389.1,54 389.2,46.9 389.4,45.5 389.6,48.6 389.7,48.5 389.9,49.1 390.1,50.5 390.2,51.3 390.4,51.4 390.6,52.4 390.7,48.3 390.9,50.7 391.1,51 391.2,51.1 391.4,51.9 391.5,52.5 391.7,53 391.9,56.3 392,47.1 392.2,45.9 392.4,50 392.5,49.1 392.7,49 392.9,51.8 393,54.8 393.2,52.1 393.4,49.8 393.5,50.5 393.7,47.8 393.9,50.8 394,50.2 394.2,49.7 394.4,49.9 394.5,51.2 394.7,64.8 394.9,52.7 395,50.5 395.2,55.2 395.4,50.9 395.5,51.2 395.7,46 395.9,45.7 396,45.7 396.2,48.1 396.4,48.1 396.5,48.4 396.7,49.3 396.9,48.6 397,50.6 397.2,48.8 397.4,48.3 397.5,49.1 397.7,51.7 397.9,51.2 398,51.2 398.2,51.2 398.3,51.1 398.5,51.2 398.7,46.8 398.8,49.6 399,50.1 399.2,50 399.3,56.4 399.5,51.7 399.7,49.6 399.8,51.7 400,50.3 400.2,50.1 400.3,49.8 400.5,49.7 400.7,49.6 400.8,49.4 401,49.6 401.2,49.6 401.3,49.3 401.5,49.7 401.7,50.5 401.8,51.2 402,50 402.2,51.3 402.3,49.6 402.5,49.5 402.7,53.9 402.8,51.2 403,52.2 403.2,51.9 403.3,50.9 403.5,51 403.7,51.3 403.8,51.1 404,50.9 404.2,52.2 404.3,51.8 404.5,51.9 404.6,51.9 404.8,52.2 405,52 405.1,50.8 405.3,50.7 405.5,60.2 405.6,52.3 405.8,52.3 406,55.9 406.1,52.3 406.3,52.1 406.5,54.5 406.6,54.6 406.8,46.6 407,46.2 407.1,45.7 407.3,61 407.5,48.8 407.6,45.8 407.8,45.9 408,45.7 408.1,45.4 408.3,46.3 408.5,45.9 408.6,45.5 408.8,46 409,46.3 409.1,45.2 409.3,46.5 409.5,47 409.6,46.2 409.8,45.8 410,46.9 410.1,47.2 410.3,47.2 410.5,47.2 410.6,47.3 410.8,47.2 411,47.3 411.1,47.4 411.3,47.2 411.4,47.3 411.6,47.1 411.8,47.2 411.9,47.2 412.1,47.2 412.3,47.1 412.4,48.1 412.6,49.5 412.8,58.8 412.9,49 413.1,47.7 413.3,49.9 413.4,50.4 413.6,50.2 413.8,50.4 413.9,50.4 414.1,50.2 414.3,50.2 414.4,50.7 414.6,50.6 414.8,50.1 414.9,50.2 415.1,54.1 415.3,50.2 415.4,50.4 415.6,49.9 415.8,50.8 415.9,50.5 416.1,50.5 416.3,50.3 416.4,50.2 416.6,50.3 416.8,50.1 416.9,50 417.1,51.8 417.3,50.9 417.4,58.3 417.6,51.2 417.7,50.3 417.9,50.5 418.1,50.2 418.2,55 418.4,50.8 418.6,45.5 418.7,45.7 418.9,47.8 419.1,48.5 419.2,48.8 419.4,51.3 419.6,52.9 419.7,50.5 419.9,50.9 420.1,50.7 420.2,54 420.4,47 420.6,46.1 420.7,49.4 420.9,49 421.1,49.4 421.2,49.7 421.4,50.8 421.6,51.1 421.7,50.9 421.9,51 422.1,51 422.2,46 422.4,45.7 422.6,48.5 422.7,49.1 422.9,48.7 423.1,54.7 423.2,51 423.4,52 423.6,51.1 423.7,51.1 423.9,52.1 424.1,53.8 424.2,52.2 424.4,53.1 424.5,51.8 424.7,52.2 424.9,52.1 425,49.8 425.2,49.6 425.4,50.8 425.5,52.2 425.7,51.3 425.9,48.5 426,47.9 426.2,47.1 426.4,49.6 426.5,49.6 426.7,49.6 426.9,49.7 427,49.6 427.2,49.6 427.4,50.5 427.5,50.4 427.7,50.2 427.9,52.3 428,52.7 428.2,50.5 428.4,50.2 428.5,50.7 428.7,58 428.9,52.6 429,50.4 429.2,51.6 429.4,51 429.5,50.8 429.7,50.9 429.9,50.4 430,49.2 430.2,49.9 430.4,50.2 430.5,49.8 430.7,50.4 430.9,50.5 431,50.7 431.2,50.3 431.3,50.1 431.5,55.8 431.7,48.7 431.8,48.5 432,49.1 432.2,50.1 432.3,50.2 432.5,51.1 432.7,50.4 432.8,50.2 433,52.1 433.2,52.1 433.3,49.7 433.5,50.4 433.7,51.6 433.8,52.5 434,48.9 434.2,46.9 434.3,46.5 434.5,46.6 434.7,46.7 434.8,49.8 435,50.7 435.2,51.6 435.3,52.6 435.5,47.2 435.7,49.5 435.8,49.9 436,50 436.2,48.7 436.3,48.7 436.5,49.1 436.7,58.4 436.8,52.3 437,47.9 437.2,51 437.3,50.7 437.5,50 437.6,50.3 437.8,45.8 438,48 438.1,48.7 438.3,48.9 438.5,50.2 438.6,50.4 438.8,51.2 439,51.6 439.1,52.9 439.3,52.4 439.5,53.2 439.6,48.7 439.8,48 440,50.5 440.1,48.3 440.3,49 440.5,49.8 440.6,49.4 440.8,48.8 441,49.1 441.1,48.9 441.3,49 441.5,49.2 441.6,48.9 441.8,56.8 442,50.8 442.1,49.3 442.3,48.9 442.5,48.8 442.6,49 442.8,48.9 443,49 443.1,50.3 443.3,51.3 443.5,51.2 443.6,52 443.8,51.5 444,46.7 444.1,49.3 444.3,50 444.4,49.8 444.6,48 444.8,49.8 444.9,50.5 445.1,51.1 445.3,46.1 445.4,45.5 445.6,48.7 445.8,46.6 445.9,46.3 446.1,49.6 446.3,50 446.4,48.9 446.6,49.8 446.8,48 446.9,50.4 447.1,49.7 447.3,51 447.4,48.5 447.6,49.8 447.8,49.5 447.9,54.1 448.1,53.2 448.3,51.1 448.4,50.9 448.6,48.4 448.8,47.6 448.9,49.9 449.1,49 449.3,49.4 449.4,54.6 449.6,48.5 449.8,49.6 449.9,48 450.1,50.7 450.3,49.3 450.4,49.1 450.6,50.3 450.7,58.7 450.9,50.6 451.1,49.7 451.2,51 451.4,50.1 451.6,49.8 451.7,50 451.9,49.7 452.1,49.8 452.2,50.7 452.4,50.5 452.6,50.2 452.7,51.2 452.9,51.4 453.1,50.9 453.2,46 453.4,45.7 453.6,54 453.7,50.8 453.9,48.6 454.1,51.3 454.2,49.9 454.4,49.6 454.6,49.7 454.7,49.7 454.9,49.5 455.1,51 455.2,51.5 455.4,51.7 455.6,53.5 455.7,49 455.9,49.7 456.1,51 456.2,51.5 456.4,51.9 456.6,46.5 456.7,45.7 456.9,48.6 457.1,48.6 457.2,49.6 457.4,46.5 457.5,45.9 457.7,48.3 457.9,50.1 458,49.3 458.2,49 458.4,49.2 458.5,49.1 458.7,56.4 458.9,52.1 459,51.4 459.2,53.5 459.4,52.3 459.5,50.6 459.7,50.4 459.9,53 460,53.9 460.2,52.2 460.4,48.6 460.5,51 460.7,46 460.9,48.7 461,48.6 461.2,48.1 461.4,48.9 461.5,50.2 461.7,52.3 461.9,52 462,50 462.2,46.8 462.4,48.9 462.5,48.8 462.7,47.9 462.9,48 463,51 463.2,51.1 463.4,49.3 463.5,52.7 463.7,48.2 463.9,50.2 464,46.1 464.2,45.6 464.3,50.4 464.5,48.4 464.7,46.7 464.8,49.4 465,49 465.2,48.9 465.3,49.9 465.5,46.7 465.7,49.3 465.8,50.3 466,50.1 466.2,49.5 466.3,49.3 466.5,49.7 466.7,49.5 466.8,49.7 467,49.4 467.2,59.1 467.3,49.6 467.5,48.8 467.7,50.9 467.8,49.8 468,49.6 468.2,49.4 468.3,49.6 468.5,49.5 468.7,51.8 468.8,50.3 469,49.9 469.2,49.9 469.3,49.6 469.5,48.9 469.7,48.5 469.8,49 470,59.4 470.2,51.7 470.3,49.9 470.5,54 470.6,51.1 470.8,51.3 471,52.8 471.1,52.9 471.3,52.4 471.5,47.1 471.6,46.6 471.8,46.6 472,49.6 472.1,49.8 472.3,49.7 472.5,51.8 472.6,52.5 472.8,52.4 473,46.6 473.1,45.8 473.3,49.4 473.5,48.5 473.6,48.4 473.8,48.7 474,49.1 474.1,49 474.3,49.3 474.5,47.7 474.6,48.8 474.8,49.1 475,48.9 475.1,49.1 475.3,49 475.5,49.5 475.6,56.2 475.8,49.8 476,48.8 476.1,51.5 476.3,49.3 476.5,52.7 476.6,53.3 476.8,52.4 477,52 477.1,52.4 477.3,48.5 477.4,47.5 477.6,48.9 477.8,48.5 477.9,49.5 478.1,52 478.3,53.9 478.4,51.5 478.6,46 478.8,45.7 478.9,48.8 479.1,48.6 479.3,51.1 479.4,51.7 479.6,54.1 479.8,52 479.9,51.7 480.1,48.8 480.3,47.9 480.4,52.8 480.6,50.4 480.8,50.1 480.9,50.7 481.1,50.3 481.3,54.4 481.4,52.8 481.6,52.2 481.8,46.1 481.9,45.7 482.1,50.1 482.3,49.8 482.4,49.5 482.6,49.1 482.8,51.9 482.9,49.3 483.1,50.2 483.3,48 483.4,48.2 483.6,48 483.7,52.7 483.9,49.4 484.1,54.3 484.2,46.9 484.4,47.1 484.6,50 484.7,49.8 484.9,49.6 485.1,49.9 485.2,49.7 485.4,49.6 485.6,49.8 485.7,49.8 485.9,49.6 486.1,51.8 486.2,52.4 486.4,52.1 486.6,50.3 486.7,52.1 486.9,53.7 487.1,54 487.2,47.3 487.4,49.7 487.6,49.7 487.7,50.4 487.9,53.7 488.1,49 488.2,46.1 488.4,51.1 488.6,51.8 488.7,49 488.9,51.3 489.1,50.7 489.2,50.3 489.4,50.3 489.6,50.5 489.7,50.3 489.9,51.2 490.1,48.6 490.2,46.5 490.4,46.2 490.5,46.2 490.7,51.6 490.9,48.5 491,49 491.2,48 491.4,49.7 491.5,50.2 491.7,51.7 491.9,50.9 492,48.7 492.2,48.5 492.4,51.2 492.5,53 492.7,49.6 492.9,50.9 493,51.8 493.2,47.5 493.4,46.7 493.5,49.1 493.7,49.2 493.9,49 494,54.4 494.2,47 494.4,52.3 494.5,52.4 494.7,47.7 494.9,49.5 495,48.8 495.2,46.2 495.4,50.5 495.5,49.4 495.7,49.1 495.9,49.6 496,49.1 496.2,49.1 496.4,49.3 496.5,49.1 496.7,49.1 496.9,51.8 497,53.9 497.2,52 497.3,51.7 497.5,51 497.7,56.6 497.8,54 498,53.9 498.2,51.4 498.3,51.3 498.5,54 498.7,51.5 498.8,51.2 499,52.1 499.2,54.6 499.3,53.7 499.5,46.9 499.7,62.9 499.8,53.9 500,51.6 500.2,50.3 500.3,50.4 500.5,50.4 500.7,50.3 500.8,50.9 501,52.4 501.2,52.1 501.3,52.2 501.5,52.1 501.7,50.8 501.8,46.3 502,48.3 502.2,48.9 502.3,50 502.5,63 502.7,53 502.8,50.6 503,50.5 503.2,51.8 503.3,49.1 503.5,52 503.6,47.7 503.8,51.6 504,49.5 504.1,48.4 504.3,48.1 504.5,51.4 504.6,47.8 504.8,50.2 505,50.5 505.1,51.4 505.3,47.5 505.5,48.8 505.6,50.7 505.8,51.2 506,46.2 506.1,45.9 506.3,47.5 506.5,47.4 506.6,47.2 506.8,50.7 507,50.4 507.1,50.8 507.3,52.7 507.5,51.3 507.6,51 507.8,51.4 508,51.3 508.1,51.1 508.3,46.6 508.5,45.9 508.6,49 508.8,48.7 509,49 509.1,48.5 509.3,49.1 509.5,48.8 509.6,49.1 509.8,49.8 510,49.7 510.1,49.8 510.3,46.6 510.4,48.2 510.6,48.8 510.8,48.6 510.9,49.4 511.1,51.4 511.3,48.4 511.4,51.1 511.6,51.6 511.8,51.3 511.9,47.5 512.1,47.9 512.3,50.7 512.4,62.1 512.6,52.4 512.8,48.8 512.9,51.3 513.1,51.6 513.3,51.1 513.4,54 513.6,51.8 513.8,50.5 513.9,51.3 514.1,51 514.3,51.1 514.4,52.4 514.6,47.3 514.8,49.8 514.9,49.7 515.1,50.7 515.3,47.9 515.4,48.4 515.6,50.6 515.8,53 515.9,52 516.1,53 516.3,56.9 516.4,46.2 516.6,45.1 516.7,45 516.9,45 517.1,46.1 517.2,45.6 517.4,49.9 517.6,45.4 517.7,45.2 517.9,45.1 518.1,45 518.2,44.8 518.4,45.6 518.6,45.2 518.7,45.3 518.9,50.9 519.1,45.2 519.2,45.2 519.4,45.2 519.6,46 519.7,45.9 519.9,45.7 520.1,45.7 520.2,52.4 520.4,46.1 520.6,45.5 520.7,45.3 520.9,45.8 521.1,45.9 521.2,45.7 521.4,45.9 521.6,52.7 521.7,46.1 521.9,45 522.1,45.2 522.2,45.5 522.4,46.3 522.6,45.9 522.7,45.9 522.9,55.6 523.1,47.8 523.2,45.7 523.4,45.9 523.5,46.4 523.7,45.1 523.9,45.4 524,46 524.2,45.3 524.4,45.5 524.5,45.5 524.7,46.3 524.9,47.4 525,47 525.2,46.5 525.4,46.3 525.5,46.7 525.7,46.5 525.9,46.2 526,53.7 526.2,46.2 526.4,45.9 526.5,46.9 526.7,48.4 526.9,47.1 527,47.4 527.2,47.5 527.4,47 527.5,47.6 527.7,53.7 527.9,51.2 528,52.4 528.2,51.8 528.4,52 528.5,52.1 528.7,56.1 528.9,54.1 529,54.2 529.2,53.9 529.4,62.3 529.5,53.3 529.7,48.8 529.9,51.8 530,46.5 530.2,45.7 530.3,50 530.5,50.4 530.7,48.7 530.8,49.5 531,50.5 531.2,49.8 531.3,54.8 531.5,48.5 531.7,50.4 531.8,53.1 532,53.1 532.2,51.9 532.3,51 532.5,50.2 532.7,54.2 532.8,52.6 533,52.1 533.2,52.8 533.3,54.4 533.5,53.4 533.7,56.1 533.8,57.1 534,52.9 534.2,52.7 534.3,52.4 534.5,53.4 534.7,53.2 534.8,53.8 535,47.9 535.2,48.4 535.3,47.2 535.5,49.7 535.7,50.2 535.8,50.3 536,46.1 536.2,45.6 536.3,45.4 536.5,49 536.6,48.7 536.8,48.5 537,51.2 537.1,52.4 537.3,49.6 537.5,53.3 537.6,49.6 537.8,51.1 538,51.3 538.1,51.1 538.3,62.3 538.5,54.2 538.6,52.3 538.8,63.1 539,55.7 539.1,53.8 539.3,52.2 539.5,45.6 539.6,45.7 539.8,48.9 540,49.3 540.1,50.6 540.3,51.4 540.5,51.3 540.6,51.1 540.8,52.2 541,48.5 541.1,51.3 541.3,50.3 541.5,48.3 541.6,50.2 541.8,50.1 542,50.3 542.1,62.3 542.3,50.6 542.5,46 542.6,45.9 542.8,48.8 543,48 543.1,48 543.3,50.2 543.4,48.1 543.6,48.4 543.8,48.3 543.9,48.9 544.1,49.5 544.3,48.6 544.4,48.7 544.6,49.4 544.8,48.9 544.9,49.8 545.1,47.3 545.3,48.3 545.4,49.6 545.6,48.5 545.8,49.4 545.9,49.9 546.1,49.5 546.3,49.6 546.4,49.2 546.6,50 546.8,57.4 546.9,50.8 547.1,49.5 547.3,51.1 547.4,53.9 547.6,49.1 547.8,51.7 547.9,52.7 548.1,52.7 548.3,54.5 548.4,51.8 548.6,53.6 548.8,53.7 548.9,53.9 549.1,53.3 549.3,46.2 549.4,45.7 549.6,47.8 549.7,48 549.9,48.1 550.1,49.1 550.2,50.4 550.4,50.1 550.6,51.5 550.7,52.9 550.9,52.3 551.1,55.5 551.2,53 551.4,51 551.6,50.8 551.7,47 551.9,46.3 552.1,49.6 552.2,49.6 552.4,51.9 552.6,52.1 552.7,52.2 552.9,52.4 553.1,52.8 553.2,50.7 553.4,52 553.6,52.7 553.7,52.2 553.9,52.5 554.1,51.5 554.2,46.6 554.4,49.3 554.6,49.5 554.7,49.7 554.9,52.2 555.1,47.2 555.2,49.1 555.4,48.7 555.6,49.1 555.7,49 555.9,50.9 556.1,50.9 556.2,50.2 556.4,50.7 556.5,50.2 556.7,50.2 556.9,50.6 557,47.4 557.2,50 557.4,50.9 557.5,50.9 557.7,54.8 557.9,48.1 558,49.3 558.2,49.1 558.4,49 558.5,50.4 558.7,50.3 558.9,48.7 559,45.4 559.2,46.8 559.4,46.3 559.5,47.4 559.7,47.2 559.9,48 560,49.4 560.2,50.8 560.4,50.4 560.5,52 560.7,50.4 560.9,51.2 561,51.3 561.2,52.2 561.4,52.5 561.5,50.4 561.7,47.3 561.9,48.8 562,49 562.2,48.4 562.4,57.8 562.5,50.6 562.7,49.3 562.8,49.4 563,49.1 563.2,48.8 563.3,51.2 563.5,49.3 563.7,48.9 563.8,49 564,47.7 564.2,48.8 564.3,49 564.5,49.5 564.7,49.5 564.8,49.4 565,49.1 565.2,54.5 565.3,48.9 565.5,49 565.7,48.6 565.8,46.7 " />
</g>

<g fill="none" stroke="#000000" stroke-opacity="1" stroke-width="1" stroke-linecap="square" stroke-linejoin="bevel" transform="matrix(1.00625,0,0,1.00625,0,0)"
font-family="Cantarell" font-size="11" font-weight="400" font-style="normal" 
>
</g>

<g fill="none" stroke="#000000" stroke-opacity="1" stroke-width="1" stroke-linecap="square" stroke-linejoin="bevel" transform="matrix(1.00625,0,0,1.00625,0,0)"
font-family="Cantarell" font-size="11" font-weight="400" font-style="normal" 
>
</g>

<g fill="none" stroke="#000000" stroke-opacity="1" stroke-width="1" stroke-linecap="round" stroke-linejoin="round" transform="matrix(1.00625,0,0,1.00625,0,0)"
font-family="Cantarell" font-size="11" font-weight="400" font-style="normal" 
>
<polyline fill="none" vector-effect="none" points="38.5,14.5 38.5,452.5 618.5,452.5 618.5,14.5 38.5,14.5 " />
</g>

<g fill="none" stroke="#000000" stroke-opacity="1" stroke-width="1" stroke-linecap="square" stroke-linejoin="bevel" transform="matrix(1.00625,0,0,1.00625,0,0)"
font-family="Cantarell" font-size="11" font-weight="400" font-style="normal" 
>
</g>

<g fill="none" stroke="#000000" stroke-opacity="1" stroke-width="1" stroke-linecap="square" stroke-linejoin="bevel" transform="matrix(1,0,0,1,0,0)"
font-family="Cantarell" font-size="11" font-weight="400" font-style="normal" 
>
</g>
</g>
</svg>
